<?xml version="1.0" standalone="no"?>
<!DOCTYPE svg PUBLIC "-//W3C//DTD SVG 1.1//EN" "http://www.w3.org/Graphics/SVG/1.1/DTD/svg11.dtd" >
<svg>
<metadata>
Created by FontForge 20090914 at Fri Jul 10 01:22:20 2015
 By www-data
Typeface &#194;&#169; (your company). 2013. All Rights Reserved
</metadata>
<defs>
<font id="Bob'sBurgers" horiz-adv-x="716" >
  <font-face 
    font-family="Bob's Burgers"
    font-weight="400"
    font-stretch="normal"
    units-per-em="2048"
    panose-1="2 0 5 0 0 0 0 0 0 0"
    ascent="1638"
    descent="-410"
    x-height="1260"
    cap-height="1296"
    bbox="-0.00195312 -200.003 1128 1388"
    underline-thickness="150"
    underline-position="-142"
    unicode-range="U+0020-U+007A"
  />
<missing-glyph horiz-adv-x="0" 
 />
    <glyph glyph-name=".notdef" horiz-adv-x="0" 
 />
    <glyph glyph-name="space" unicode=" " horiz-adv-x="508" 
 />
    <glyph glyph-name="space" unicode="&#xa0;" horiz-adv-x="508" 
 />
    <glyph glyph-name="exclam" unicode="!" horiz-adv-x="316" 
d="M312 1280c0 -2.66699 1.33301 -4 4 -4c-2.66699 -31.333 -4 -54 -4 -68v-236c0 -31.333 -1.33301 -63.333 -4 -96c2.66699 -14 4 -27.333 4 -40c-2.66699 -138 -6.66699 -276.667 -12 -416c-40 -48 -66.667 -72 -80 -72h-32c-32 0 -89.333 1.33301 -172 4l-4 8v20
c0 48.667 -1.33301 80.667 -4 96c10.667 252 16 396 16 432c0 62 -2.66699 152.667 -8 272c58.667 64 94.667 96 108 96h12c26 0 84.667 1.33301 176 4zM200 1244l-56.001 0.000976562c5.33301 -49.333 8 -93.333 8 -132v-252c0 -146.667 -4 -281.334 -12 -404.001h128
c5.33301 98 8 202 8 312c0 12 1.33301 20 4 24c0 2 -1.33301 10 -4 24c2.66699 198.667 4 342.667 4 432h-4c-29.333 -2.66699 -54.666 -4 -75.999 -4zM195.999 284.001c54 0 88.668 -36 104.001 -108v-8c-22.667 -112 -77.334 -168 -164.001 -168
c-76.667 0 -122 46.667 -136 140c0 72 61.333 120 184 144h12zM80 168.001c0 -58.667 29.333 -88 88 -88h20c26 0 50 20 72 60c2.66699 4.66699 4 11.334 4 20.001v20c-7.33301 45.333 -27.333 68 -60 68h-36c-58.667 -8.66699 -88 -35.334 -88 -80.001z" />
    <glyph glyph-name="quotedbl" unicode="&#x22;" horiz-adv-x="580" 
d="M352 1353l215.999 -0.000976562c5.33301 -0.666992 8 -3.33398 8 -8.00098c2.66699 -108 4 -180 4 -216c-59.333 -139.333 -112.666 -248.666 -159.999 -327.999h-4c-45.333 68.667 -88 160.667 -128 276h-4c-62 -141.333 -102 -238.666 -120 -291.999h-4
c-6.66699 0 -58.667 98.667 -156 296c-2.66699 0 -4 4 -4 12v176c53.333 45.333 89.333 68 108 68c48 0 106.667 2.66699 176 8l4 -8v-20h4zM383.999 1321v-4c0 -36 1.33301 -98.667 4 -188c26.667 -68 52 -124 76 -168h8c0 7.33301 25.333 67.333 76 180
c-2.66699 89.333 -4 149.333 -4 180h-160zM119.999 1305l-0.000976562 -136c0 -32 21.333 -89.333 64 -172c8 -13.333 12 -24 12 -32c30.667 50.667 57.334 112 80.001 184c-10.667 106.667 -18.667 160 -24 160c-63.333 -2.66699 -107.333 -4 -132 -4z" />
    <glyph glyph-name="ampersand" unicode="&#x26;" horiz-adv-x="1076" 
d="M484 1308c88 0 168.001 -54.6699 240.001 -164.003c24 -27.333 36 -62 36 -104v-12c0 -99.333 -42.667 -200.666 -128 -303.999c-29.333 -39.333 -44 -60.666 -44 -63.999c18 -45.333 74 -112 168 -200c42.667 23.333 72 62 88 116c10.667 29.333 16 48 16 56
c144 -44 216 -70.667 216 -80c-32 -106.667 -84 -188 -156 -244l-12 -16l152 -156v-8c-27.333 -50.667 -46 -76 -56 -76l-252 -16c0 2 -22.667 20.667 -68 56h-4c-86.667 -61.333 -188 -92 -304 -92h-16c-169.333 0 -284 101.333 -344 304c-10.667 50.667 -16 96 -16 136
c0 90.667 73.333 178.667 220 264v4c-77.333 116 -116 213.333 -116 292c0 96.667 65.333 187.334 196 272.001c51.333 24 112.666 36 183.999 36zM212.001 1008l-0.00195312 -40.0049c0 -77.333 29.333 -158.666 88 -243.999c-128 -84.667 -192 -160.667 -192 -228
c0 -202 64 -330 192 -384c27.333 -13.333 56.666 -20 87.999 -20h8c84 0 188 38.667 312 116h4c0.666992 -4 26 -28 76 -72c121.333 13.333 188 21.333 200 24v4c-3.33301 0 -46 44 -128 132c82.667 72.667 133.334 131.334 152.001 176.001
c13.333 34.667 20 57.334 20 68.001l-148 52c-18 -68 -50 -118.667 -96 -152c-17.333 -13.333 -30.666 -20 -39.999 -20c-104 102 -170.667 182 -200 240v4c117.333 149.333 176 256 176 320c2.66699 12.667 4 31.334 4 56.001c0 64.667 -54.667 138 -164 220
c-25.333 10.667 -56 16 -92 16c-117.333 0 -194.666 -36 -231.999 -108c-18.667 -63.333 -28 -116.666 -28 -159.999zM483.999 1111.99h8c54 0 90 -29.333 108 -88c4.66699 -14 8.66699 -34 12 -60c0 -76 -50.667 -134.667 -152 -176c-69.333 72.667 -104 140.667 -104 204
c0 68 42.667 108 128 120zM387.999 987.992c0 -40.667 26.667 -95.333 80 -164c28 13.333 48 28 60 44v8c0 89.333 -29.333 144 -88 164l-28 8c-16 -16.667 -24 -36.667 -24 -60zM407.999 619.993l208 -312c-71.333 -72 -139.333 -108 -204 -108c-86 0 -138 66.667 -156 200
c-2.66699 26.667 -4 46.667 -4 60c0 46 52 99.333 156 160zM283.999 451.993c14.667 -141.333 46.667 -212 96 -212c0 -2.66699 5.33301 -4 16 -4h24c56 0 84 16 84 48c0 24 -50.667 102.667 -152 236c-5.33301 6.66699 -8 12 -8 16c-40 -31.333 -60 -59.333 -60 -84z" />
    <glyph glyph-name="quotesingle" unicode="'" horiz-adv-x="316" 
d="M292 1247c10.667 -17.333 18.667 -128.001 24 -332.001c0 -91.333 -53.333 -199.333 -160 -324c-45.333 -26.667 -85.333 -40 -120 -40l-4 8c21.333 60 32 122.667 32 188v36c0 56.667 -21.333 103.334 -64 140.001c2.66699 26.667 4 46.667 4 60v188c14 18 42 42 84 72
c110 2.66699 178 4 204 4zM124 1211v-4c-5.33301 -94.667 -8 -165.334 -8 -212.001c48 -46 72 -98 72 -156v-152c64 86.667 96 164 96 232c0 42.667 -5.33301 141.334 -16 296.001c-70 -2.66699 -118 -4 -144 -4z" />
    <glyph glyph-name="comma" unicode="," horiz-adv-x="292" 
d="M276 316c8 0 13.334 -58.6689 16.001 -176.002v-44c0 -121.333 -62.667 -220 -188 -296c-4.66699 8.66699 -11.334 47.334 -20.001 116.001c0 24.667 -25.333 56.667 -76 96c-5.33301 56.667 -8 106 -8 148v84c46.667 42.667 96 64 148 64
c13.333 2.66699 56 5.33398 128 8.00098zM112.001 275.998l0.000976562 -16.002c0 -31.333 1.33301 -80.666 4 -147.999c64 -31.333 96 -87.333 96 -168c32 44 48 97.333 48 160v16c0 58.667 -2.66699 113.334 -8 164.001c-52.667 -5.33301 -99.334 -8 -140.001 -8z" />
    <glyph glyph-name="period" unicode="." horiz-adv-x="300" 
d="M196 288c44.667 0 76.667 -22.668 96 -68.001c5.33301 -10 8 -20.667 8 -32v-12c0 -93.333 -53.333 -152 -160 -176h-12c-74 0 -116.667 44 -128 132c0 66.667 56 117.334 168 152.001zM76 159.999c12 -61.333 41.332 -92 87.999 -92c69.333 0 104 36 104 108v4
c0 40.667 -21.333 64.667 -64 72h-16c-59.333 0 -96.666 -26.667 -111.999 -80v-12z" />
    <glyph glyph-name="slash" unicode="/" horiz-adv-x="960" 
d="M808 1388c85.333 -45.333 136.003 -74.666 152.003 -87.999c-54.667 -146 -105.334 -263.333 -152.001 -352c-91.333 -173.333 -243.333 -481.333 -456 -924c-11.333 -18.667 -54 -46.667 -128 -84c-84.667 13.333 -159.334 28 -224.001 44c28 80 76 178.667 144 296
c29.333 55.333 102.666 212.666 219.999 471.999c42 60.667 155.333 256.667 340 588zM816.003 1344c-164 -271.333 -278.666 -492.667 -343.999 -664c-68 -168.667 -148 -334 -240 -496c-14.667 -14 -32 -42 -52 -84l144 -56l508 1028
c9.33301 16.667 38.666 88.667 87.999 216c-63.333 37.333 -98 56 -104 56z" />
    <glyph glyph-name="zero" unicode="0" horiz-adv-x="796" 
d="M452 1296c94 0 168.668 -40 224.001 -120c40 -79.333 70.667 -191.333 92 -336c13.333 -76 22.666 -166.667 27.999 -272c0 -198 -68 -370 -204 -516c-43.333 -34.667 -106 -52 -188 -52c-166.667 -0 -288 89.333 -364 268c-26.667 92.667 -40 180.667 -40 264
c-0 133.333 29.333 300 88 500c74 120.667 186 208.667 336 264h28zM120.001 560c0 -226 84 -375.333 252 -448c33.333 -10.667 61.333 -16 84 -16h12c107.333 0 194 80 260 240c21.333 68.667 32 136.667 32 204v60c0 134.667 -28 300 -84 496
c-40 112 -117.333 168 -232 168c-60.667 0 -126 -45.333 -196 -136c-85.333 -180.667 -128 -370 -128 -568zM428.001 1108c69.333 0 124 -69.334 164 -208.001c10.667 -56 16 -110.667 16 -164v-96c0 -248 -56 -372 -168 -372h-12c-91.333 0 -150 109.333 -176 328
c-5.33301 60.667 -8 119.334 -8 176.001v16c0 125.333 49.333 229.333 148 312c17.333 5.33301 29.333 8 36 8zM328.001 979.999c-34.667 -68.667 -52 -134.001 -52 -196.001c0 -268 41.333 -426.667 124 -476l24 -8c45.333 26 68 63.333 68 112c8 29.333 12 88 12 176
c-12 214.667 -33.333 333.334 -64 356.001c-17.333 24 -49.333 36 -96 36h-16z" />
    <glyph glyph-name="one" unicode="1" horiz-adv-x="812" 
d="M388 1296h159.999c4 0 8 -4 12 -12c8 -235.333 12 -370 12 -404c-10.667 -264.667 -16 -426 -16 -484v-88l16 -4c21.333 0 100 1.33301 236 4l4 -8v-204c-62 -61.333 -95.333 -92 -100 -92c-284 -2.66699 -502.667 -4 -656 -4h-40c-4 0 -8 4 -12 12v4
c0 48 -1.33301 113.333 -4 196c32.667 50 55.334 79.333 68.001 88h44c48 0 98.667 -2.66699 152 -8v52c0 29.333 -1.33301 48 -4 56c2.66699 25.333 4 49.333 4 72v120c0 82 5.33301 164.667 16 248h-4l-76 -44l-104 132c-24 26 -36 40.667 -36 44
c22 56 91.333 137.333 208 244c70 53.333 110 80 120 80zM139.999 1036l0.000976562 -4c56.667 -64 87.334 -102.667 92.001 -116l160 108l4 -8v-444c-5.33301 -205.333 -13.333 -308 -24 -308c-40 -2.66699 -68 -4 -84 -4c-94.667 5.33301 -156 8 -184 8h-8
c2.66699 -31.333 4 -54 4 -68v-84c64 0 157.333 -1.33301 280 -4c133.333 2.66699 266.666 6.66699 399.999 12v144l-4 8c-57.333 -2.66699 -100 -4 -128 -4h-60c-42.667 0 -64 4 -64 12v128c0 64 5.33301 221.333 16 472l-12 380h-128c-18.667 0 -77.334 -44 -176.001 -132
z" />
    <glyph glyph-name="two" unicode="2" horiz-adv-x="644" 
d="M368 1252h20.001c110 0 182 -50.667 216 -152c21.333 -64.667 32 -128.667 32 -192v-40c0 -90 -37.333 -156.667 -112 -200c-30 -26 -68.667 -51.333 -116 -76c-72 -79.333 -108 -191.333 -108 -336c36 -2.66699 62.667 -4 80 -4h256
c5.33301 -0.666992 8 -3.33398 8 -8.00098c-6.66699 -120 -14.667 -180 -24 -180c-4.66699 -10.667 -26 -32 -64 -64h-484c-48 0 -72 5.33301 -72 16c0 296 9.33301 444 28 444c20.667 80.667 136.667 182 348 304c16 16 24 38.667 24 68c-6 96 -26 144 -60 144h-4
c-24.667 -12 -55.334 -49.333 -92.001 -112h-4c-112 57.333 -177.333 93.333 -196 108c5.33301 54.667 36 121.334 92 200.001c30.667 53.333 108 80 232 80zM108.001 1064l112.001 -67.999c30.667 50.667 65.334 76 104.001 76h20c101.333 0 152 -56 152 -168
c0 -83.333 -73.333 -163.333 -220 -240c-50 -27.333 -90 -83.333 -120 -168c-24 -70 -36 -200.667 -36 -392h4c69.333 -2.66699 228 -5.33398 476 -8.00098c5.33301 66.667 8 106.667 8 120h-20c-106.667 0 -212 2.66699 -316 8l-4 8v8c0 196 49.333 328 148 396
c40.667 10.667 98 57.334 172 140.001c10.667 22 16 52.667 16 92v36c0 137.333 -34.667 233.333 -104 288c-33.333 18.667 -73.333 28 -120 28h-4c-110.667 0 -177.334 -17.333 -200.001 -52c-32.667 -40.667 -55.334 -75.334 -68.001 -104.001z" />
    <glyph glyph-name="three" unicode="3" horiz-adv-x="808" 
d="M440 1276l28.001 -0.000976562c122 0 223.333 -48 304 -144c24 -44 36 -85.333 36 -124c0 -128 -40 -230.667 -120 -308c-31.333 -16 -48.666 -24 -51.999 -24c82.667 -64 124 -142.667 124 -236c-4 -212 -100 -350.667 -288 -416c-34 -13.333 -171.333 -20 -412 -20
l-48 -4l-4 8c0 42.667 -2.66699 137.334 -8 284.001c60.667 42.667 96.667 64 108 64c200 0 300 14.667 300 44c13.333 12.667 20 34 20 64c0 56 -20 84 -60 84h-16c-23.333 0 -56.666 -2.66699 -99.999 -8c-16 78 -24 130 -24 156c47.333 48 75.333 72 84 72
c109.333 10 164 27.333 164 52c2.66699 14.667 4 26.667 4 36v8c0 64 -29.333 96 -88 96h-8c-40.667 0 -131.334 -36 -272.001 -108c-24.667 -10.667 -39.334 -16 -44.001 -16h-4c-10.667 38 -25.334 120.667 -44.001 248c62 70 106 107.333 132 112
c111.333 53.333 207.333 80 288 80zM136.001 1148l23.998 -127.998c152.667 50.667 247.334 76 284.001 76c68.667 0 118 -29.333 148 -88c2.66699 -4.66699 4 -10 4 -16v-44c0 -96.667 -36 -156.667 -108 -180c-38 -10.667 -90 -21.334 -156 -32.001l4 -28v-40l4 -8l8 4
c82.667 0 137.334 -32 164.001 -96c10.667 -20 16 -40 16 -60c0 -68.667 -36 -122 -108 -160c-24.667 -10.667 -124.667 -18.667 -300 -24v-4l8 -216c57.333 2.66699 100 4 128 4h92c118.667 0 228 37.333 328 112c34.667 70.667 52 144 52 220
c0 105.333 -61.333 189.333 -184 252v8h32c106.667 0 172 86.667 196 260c0 18 1.33301 34 4 48c0 101.333 -69.333 174.666 -208 219.999c-44 10.667 -80 16 -108 16h-4c-103.333 0 -210 -32 -320 -96z" />
    <glyph glyph-name="four" unicode="4" horiz-adv-x="832" 
d="M704 1268c0 -2.66699 1.33496 -4.00195 4.00195 -4.00195c5.33301 -207.333 8 -331.333 8 -372c-2.66699 -74 -4 -135.333 -4 -184c36 2.66699 62.667 4 80 4h32l8 -4c0 -149.333 -12 -238.666 -36 -267.999c-16.667 -48 -34 -72 -52 -72
c-10.667 0 -21.334 -1.33301 -32.001 -4v-124c0 -128 -8 -192 -24 -192c-26.667 -28 -40 -44 -40 -48l-284 8c-2.66699 5.33301 -4 9.33301 -4 12c2.66699 190.667 4 301.334 4 332.001h-4c-70 -2.66699 -128.667 -4 -176 -4h-112c-48 0 -72 5.33301 -72 16
c8.66699 218.667 16.667 328 24 328c199.333 255.333 323.333 422 372 500c51.333 42.667 88.666 64 111.999 64c98.667 8 164 12 196 12zM132.002 487.998c40 0 113.332 -1.33105 219.999 -3.99805c62.667 2.66699 105.334 4 128.001 4l4 -8c8 -201.333 12 -328 12 -380
c67.333 -2.66699 120.666 -4 159.999 -4h16c5.33301 53.333 8 89.333 8 108c-2.66699 127.333 -4 227.333 -4 300l8 4c44.667 2.66699 79.334 4 104.001 4c5.33301 48.667 8 102 8 160v8c-36 -2.66699 -62.667 -4 -80 -4h-28c-5.33301 0 -8 4 -8 12
c0 84 1.33301 157.333 4 220l-8 328c-114.667 -6.66699 -172 -13.334 -172 -20.001c-6.66699 -42.667 -62.667 -129.334 -168 -260.001c-130.667 -174 -196 -270 -196 -288zM500.001 1016h4.00098c13.333 -110.667 20 -182.667 20 -216v-120c0 -8 -34.667 -12 -104 -12h-120
c-5.33301 0 -8 2.66699 -8 8c11.333 40.667 80.666 154 207.999 340zM420.002 840c-53.333 -86 -80 -132.666 -80 -139.999h80v12c0 33.333 1.33301 74.666 4 123.999v4h-4z" />
    <glyph glyph-name="five" unicode="5" horiz-adv-x="732" 
d="M668 1284c6.66699 0 12.002 -64 16.002 -192l-72 -80c-30 0 -134 -4 -312 -12c2.66699 -81.333 4 -133.333 4 -156h96c111.333 0 204.666 -50.667 279.999 -152c34.667 -68 52 -149.333 52 -244c0 -148 -60 -277.333 -180 -388c-68 -40 -134.667 -60 -200 -60h-24
c-144 0 -237.333 108 -280 324c-8 34 -13.333 74 -16 120c62.667 38.667 100 62.667 112 72c78.667 2.66699 132 4 160 4c22.667 -130.667 54.667 -196 96 -196c18.667 30 28 59.333 28 88c0 70 -41.333 128.667 -124 176c-57.333 10.667 -112 16 -164 16
c-16.667 0 -51.334 -1.33301 -104.001 -4c-8 0 -18.667 134.667 -32 404c-2.66699 102.667 -4 160 -4 172c57.333 52 96 85.333 116 100c87.333 0 271.333 2.66699 552 8zM140.002 1244l-16 -195.999c8 -179.333 18.667 -291.333 32 -336h16c10.667 0 16 1.33301 16 4l28 -4
h20c210.667 0 316 -89.333 316 -268c0 -77.333 -29.333 -129.333 -88 -156l-28 -4h-20c-62 0 -106 56 -132 168c-2.66699 24 -6.66699 36 -12 36c-44.667 -2.66699 -79.334 -4 -104.001 -4c0 -142.667 34.667 -252 104 -328c35.333 -29.333 74 -44 116 -44h28
c94.667 0 177.334 53.333 248.001 160c24 48.667 36 110 36 184c0 169.333 -60 278.666 -180 327.999c-26 16 -52.667 24 -80 24h-156c-6 0 -10 6.66699 -12 20c0 53.333 -4 150.666 -12 291.999l8 4h56c80 0 189.333 1.33301 328 4l-4 20
c0 6.66699 -1.33301 41.334 -4 104.001c-208 -5.33301 -376 -8 -504 -8z" />
    <glyph glyph-name="six" unicode="6" 
d="M492 1336l36.001 -172c-32 -50.667 -50.667 -76 -56 -76c-8.66699 0 -15.334 1.33301 -20.001 4c-96 -6.66699 -144 -25.334 -144 -56.001c-24 -83.333 -36 -170 -36 -260c44 18.667 88 28 132 28h20c120 0 212 -58.667 276 -176c8 -18.667 13.333 -58.667 16 -120
c0 -131.333 -28 -244.666 -84 -339.999c-11.333 -38.667 -46 -78.667 -104 -120c-70 -32 -132.667 -48 -188 -48c-124 0 -221.333 102.667 -292 308c-32 129.333 -48 269.333 -48 420c-0 195.333 29.333 322 88 380c67.333 78 138 131.333 212 160
c96.667 45.333 160.667 68 192 68zM124.001 816l-0.000976562 -80.001c0 -296 68 -492 204 -588c33.333 -21.333 73.333 -32 120 -32c116.667 0 191.334 84 224.001 252c5.33301 42 8 78 8 108v80c0 94.667 -68 165.334 -204 212.001c-28 2.66699 -50.667 4 -68 4
c-61.333 0 -117.333 -17.333 -168 -52c0 2.66699 -1.33301 4 -4 4c0 229.333 37.333 366.666 112 411.999c67.333 34.667 114 52 140 52l-20 112c-95.333 -23.333 -178 -76.666 -248 -159.999c-64 -82.667 -96 -190.667 -96 -324zM448 627.999
c66 0 107.333 -48.001 124 -144.001v-28c-13.333 -93.333 -60 -140 -140 -140c-85.333 12.667 -128 55.334 -128 128.001v20c19.333 109.333 67.333 164 144 164zM364 543.998c-18.667 -29.333 -28 -58.667 -28 -88v-4c8 -66.667 36 -100 84 -100h12l4 40
c0 81.333 -24 132 -72 152z" />
    <glyph glyph-name="seven" unicode="7" horiz-adv-x="792" 
d="M784 1276l3.99902 -7.99805c0 -12 1.33301 -42.667 4 -92c0 -74.667 -14.667 -133.334 -44 -176.001c-147.333 -272 -250 -497.333 -308 -676c-56.667 -152 -90 -237.333 -100 -256l-72 -68h-260c-5.33301 0 -8 2.66699 -8 8c85.333 293.333 145.333 470.666 180 531.999
c58.667 98 133.334 238 224.001 420h-4c-25.333 0 -132 -1.33301 -320 -4c-4 0 -20 -1.33301 -48 -4c-6 0 -12.667 81.333 -20 244l80 76c334 2.66699 564.667 4 692 4zM119.999 1240l0.000976562 -3.99707c2.66699 -18.667 6.66699 -73.334 12 -164.001
c100 8 257.333 13.333 472 16v-4c-32.667 -112.667 -124.667 -287.334 -276 -524.001c-56 -110.667 -114.667 -260 -176 -448h4c26.667 0 82.667 -1.33301 168 -4c117.333 339.333 222.666 588.666 315.999 747.999c74.667 148.667 112 227.334 112 236.001
c5.33301 40 8 69.333 8 88c-2.66699 27.333 -4 48.666 -4 63.999c-300.667 -2.66699 -512.667 -4 -636 -4z" />
    <glyph glyph-name="eight" unicode="8" horiz-adv-x="736" 
d="M420 1332h28.001c116.667 0 194 -88 232 -264c5.33301 -35.333 8 -70 8 -104v-56c0 -95.333 -21.333 -170 -64 -224c74.667 -65.333 112 -142.666 112 -231.999c0 -80.667 -34.667 -170 -104 -268c-54.667 -122.667 -145.334 -184 -272.001 -184
c-138 0 -227.333 53.333 -268 160c-24 54 -36 99.333 -36 136v32c0 56.667 24 114 72 172c10.667 21.333 16 36 16 44c-96 93.333 -144 209.333 -144 348v48c0 171.333 108 292.666 324 363.999c25.333 18.667 57.333 28 96 28zM116.001 912l-0.000976562 -20
c0 -110 42.667 -196.667 128 -260v-4c-69.333 -82.667 -104 -164 -104 -244c0 -122.667 70.667 -214.667 212 -276c25.333 -5.33301 45.333 -8 60 -8h4c106 0 195.333 82.667 268 248c13.333 34.667 20 69.334 20 104.001c0 86 -42.667 163.333 -128 232
c53.333 41.333 80 118.666 80 231.999v36c0 170 -48 280.667 -144 332c-23.333 10.667 -48.666 16 -75.999 16h-16c-90 0 -178 -70.667 -264 -212c-26.667 -61.333 -40 -120 -40 -176zM412 1120h16c61.333 -10 92 -48.667 92 -116c2.66699 -14.667 4 -25.334 4 -32.001
c-11.333 -112 -51.333 -168 -120 -168h-4c-77.333 10.667 -116 49.334 -116 116.001c0 64 32 126.667 96 188c13.333 8 24 12 32 12zM352 1028c-22 -41.333 -34 -78.667 -36 -112c11.333 -53.333 38 -80 80 -80h12c10 0 16.667 20 20 60c0 77.333 -13.333 116 -40 116
c0 6.66699 -10.667 12 -32 16h-4zM444 587.999c80 -10 120.001 -48.667 120.001 -116v-20c-14 -106.667 -52.667 -160 -116 -160c0 -2.66699 -1.33301 -4 -4 -4c-62.667 0 -105.334 52 -128.001 156v40c0 58 41.333 92.667 124 104h4zM372.001 531.999
c-16 -18.667 -24 -37.332 -24 -55.999v-16c16.667 -90.667 46 -136 88 -136h12c8 25.333 12 46.666 12 63.999c0 63.333 -18.667 107.333 -56 132z" />
    <glyph glyph-name="nine" unicode="9" horiz-adv-x="676" 
d="M440 1332c113.333 0 189.333 -56.001 228 -168.001c5.33301 -26.667 8 -50.667 8 -72v-188c0 -174 -22.667 -379.333 -68 -616c-21.333 -149.333 -36 -224 -44 -224l-64 -64h-220v4c0 20.667 21.333 175.334 64 464.001c-144 0 -242.667 38.667 -296 116
c-32 76 -48 162.667 -48 260c0 178 50.667 299.333 152 364c108.667 82.667 204.667 124 288 124zM124 883.999c0 -192 73.332 -288 219.999 -288c43.333 0 91.333 10.667 144 32c0 -2.66699 1.33301 -4 4 -4l-88 -520c62.667 2.66699 109.334 4 140.001 4h4v4
c64 381.333 96 621.333 96 720v252c0 96.667 -37.333 162 -112 196c-26 13.333 -59.333 20 -100 20c-104 0 -190.667 -62.667 -260 -188c-32 -64.667 -48 -140.667 -48 -228zM403.999 1116l4.00195 0.000976562c39.333 0 68.666 -26.667 87.999 -80
c5.33301 -25.333 8 -45.333 8 -60v-36c0 -74.667 -26.667 -124 -80 -148c-10.667 -5.33301 -25.334 -8 -44.001 -8h-16c-66.667 13.333 -100 46.666 -100 99.999v24c0 80.667 37.333 148.667 112 204zM340.001 1032c-29.333 -45.333 -44 -86.667 -44 -124v-16
c8 -50.667 33.333 -76 76 -76h12c10.667 44 16 82.667 16 116v12c0 34 -20 63.333 -60 88z" />
    <glyph glyph-name="colon" unicode=":" horiz-adv-x="306" 
d="M178 1003c85.333 0 128 -46.667 128 -140c-6.66699 -38.667 -32 -80 -76 -124c-33.333 -18.667 -65.333 -30.667 -96 -36c-71.333 0 -114 46.667 -128 140v8c0 70 46.667 119.333 140 148c11.333 0 22 1.33301 32 4zM86 871c0 -58.667 19.999 -88 59.999 -88
c60.667 0 103.334 26.667 128.001 80v8c0 64 -28 96 -84 96h-12c-61.333 0 -92 -25.333 -92 -76v-20zM195.999 528c44.667 0 76.667 -22.668 96 -68.001c5.33301 -10 8 -20.667 8 -32v-12c0 -93.333 -53.333 -152 -160 -176h-12c-74 0 -116.667 44 -128 132
c0 66.667 56 117.334 168 152.001zM75.999 399.999c12 -61.333 41.332 -92 87.999 -92c69.333 0 104 36 104 108v4c0 40.667 -21.333 64.667 -64 72h-16c-59.333 0 -96.666 -26.667 -111.999 -80v-12z" />
    <glyph glyph-name="semicolon" unicode=";" horiz-adv-x="300" 
d="M196 998c44.667 0 76.667 -22.668 96 -68.001c5.33301 -10 8 -20.667 8 -32v-12c0 -93.333 -53.333 -152 -160 -176h-12c-74 0 -116.667 44 -128 132c0 66.667 56 117.334 168 152.001zM76 869.999c12 -61.333 41.332 -92 87.999 -92c69.333 0 104 36 104 108v4
c0 40.667 -21.333 64.667 -64 72h-16c-59.333 0 -96.666 -26.667 -111.999 -80v-12zM275.999 315.999c8 0 13.334 -58.6689 16.001 -176.002v-44c0 -121.333 -62.667 -220 -188 -296c-4.66699 8.66699 -11.334 47.334 -20.001 116.001c0 24.667 -25.333 56.667 -76 96
c-5.33301 56.667 -8 106 -8 148v84c46.667 42.667 96 64 148 64c13.333 2.66699 56 5.33398 128 8.00098zM112 275.997l0.000976562 -16.002c0 -31.333 1.33301 -80.666 4 -147.999c64 -31.333 96 -87.333 96 -168c32 44 48 97.333 48 160v16
c0 58.667 -2.66699 113.334 -8 164.001c-52.667 -5.33301 -99.334 -8 -140.001 -8z" />
    <glyph glyph-name="semicolon" unicode="&#x37e;" horiz-adv-x="300" 
d="M196 998c44.667 0 76.667 -22.668 96 -68.001c5.33301 -10 8 -20.667 8 -32v-12c0 -93.333 -53.333 -152 -160 -176h-12c-74 0 -116.667 44 -128 132c0 66.667 56 117.334 168 152.001zM76 869.999c12 -61.333 41.332 -92 87.999 -92c69.333 0 104 36 104 108v4
c0 40.667 -21.333 64.667 -64 72h-16c-59.333 0 -96.666 -26.667 -111.999 -80v-12zM275.999 315.999c8 0 13.334 -58.6689 16.001 -176.002v-44c0 -121.333 -62.667 -220 -188 -296c-4.66699 8.66699 -11.334 47.334 -20.001 116.001c0 24.667 -25.333 56.667 -76 96
c-5.33301 56.667 -8 106 -8 148v84c46.667 42.667 96 64 148 64c13.333 2.66699 56 5.33398 128 8.00098zM112 275.997l0.000976562 -16.002c0 -31.333 1.33301 -80.666 4 -147.999c64 -31.333 96 -87.333 96 -168c32 44 48 97.333 48 160v16
c0 58.667 -2.66699 113.334 -8 164.001c-52.667 -5.33301 -99.334 -8 -140.001 -8z" />
    <glyph glyph-name="question" unicode="?" horiz-adv-x="756" 
d="M424 1252c162.667 0 269.333 -82.667 320 -248c8 -46 12 -80.667 12 -104c0 -125.333 -64 -229.333 -192 -312c-77.333 -32.667 -116 -50 -116 -52l12 -132c-13.333 -45.333 -36 -68 -68 -68c-19.333 0 -80.666 -12 -183.999 -36c-5.33301 14.667 -24 124 -56 328
c38 53.333 59.333 80 64 80c157.333 30 236 60.667 236 92v36c0 77.333 -13.333 116 -40 116c0 3.33301 -14.667 7.33301 -44 12c-48 0 -144 -49.333 -288 -148c-7.33301 0 -34 68 -80 204c113.333 118.667 194.666 184 243.999 196c58 24 118 36 180 36zM103.999 1072
l32.001 -108.001c78 52.667 167.333 84.667 268 96h24c61.333 0 98.666 -54.667 111.999 -164v-16c0 -75.333 -48 -128.666 -144 -159.999c-36 -13.333 -86.667 -26.666 -152 -39.999c26.667 -170.667 42.667 -260 48 -268l132 16v4l-12 124c142 56 227.333 113.333 256 172
c37.333 59.333 56 116.666 56 171.999c0 146.667 -64 248 -192 304c-40 10.667 -78.667 16 -116 16c-115.333 0 -219.333 -48 -312 -144v-4zM432 299.999c85.333 0 128 -46.667 128 -140c-6.66699 -38.667 -32 -80 -76 -124c-33.333 -18.667 -65.333 -30.667 -96 -36
c-71.333 0 -114 46.667 -128 140v8c0 70 46.667 119.333 140 148c11.333 0 22 1.33301 32 4zM340 167.999c0 -58.667 19.999 -88 59.999 -88c60.667 0 103.334 26.667 128.001 80v8c0 64 -28 96 -84 96h-12c-61.333 0 -92 -25.333 -92 -76v-20z" />
    <glyph glyph-name="at" unicode="@" horiz-adv-x="860" 
d="M524 1280h7.99902c126.667 0 225.334 -102.667 296.001 -308c21.333 -106 32 -218 32 -336c0 -200 -10.667 -300 -32 -300c-16 -10.667 -26.667 -16 -32 -16v-4c24 -7.33301 36 -14 36 -20v-4c-41.333 -68 -81.333 -129.333 -120 -184c-56 -72 -152 -108 -288 -108
c-172.667 -0 -282 45.333 -328 136c-64 96 -96 244 -96 444v56c0 317.333 106.667 516 320 596c98.667 32 166.667 48 204 48zM99.999 592c0 -260 58.6699 -416.002 176.003 -468.002c37.333 -16 94.666 -24 171.999 -24h40c118 0 206 46.667 264 140
c10 9.33301 20.667 24 32 44v4c-3.33301 0 -35.333 14.667 -96 44c-72 -96 -138.667 -144 -200 -144h-8c-119.333 0 -203.333 77.333 -252 232c-13.333 59.333 -20 114 -20 164v92c0 198.667 52 341.334 156 428.001c27.333 18.667 59.333 28 96 28h24
c113.333 0 190.666 -65.333 231.999 -196c29.333 -99.333 44 -254 44 -464l-8 -4h-32c-80 18.667 -120 78.667 -120 180c-2.66699 7.33301 -4 27.333 -4 60v64c0 34 2.66699 68.667 8 104h-60c-4 0 -13.333 -24 -28 -72h-4c-42.667 42.667 -77.334 64 -104.001 64
c-72 -23.333 -108 -71.333 -108 -144v-136c5.33301 -117.333 21.333 -176 48 -176c4 -9.33301 28 -16 72 -20c65.333 0 130.666 24 195.999 72h4c106 -48 171.333 -72 196 -72c5.33301 66.667 8 126.667 8 180v120c0 276.667 -70.667 455.334 -212 536.001
c-28.667 13.333 -58 20 -88 20h-4c-103.333 0 -208.666 -62.667 -315.999 -188c-69.333 -83.333 -104 -239.333 -104 -468zM244.002 759.998c63.333 93.333 119.333 140 168 140c21.333 0 37.333 -5.33301 48 -16c34.667 16 52 25.333 52 28c31.333 -2.66699 54 -4 68 -4h52
c-19.333 62 -47.333 104.667 -84 128c-35.333 21.333 -82 32 -140 32h-16c-58.667 0 -106.667 -93.333 -144 -280c0 -8 -1.33301 -17.333 -4 -28zM636.002 875.998c-5.33301 -48 -8 -89.333 -8 -124v-36c0 -73.333 10.667 -132 32 -176h4v4
c-5.33301 161.333 -13.333 272 -24 332h-4zM436.002 739.998c38.667 0 61.334 -26.667 68.001 -80v-8c-6.66699 -114.667 -29.334 -172 -68.001 -172h-8c-38 0 -62 37.333 -72 112c0 84 26.667 133.333 80 148zM396.002 655.998c-5.33301 -25.333 -8 -45.334 -8 -60.001
c0 -19.333 5.33301 -40.666 16 -63.999c8 0 13.333 24 16 72c0 8.66699 -5.33301 26 -16 52h-8zM428.002 291.997c-28 0 -66.667 8 -116 24v-4c42.667 -61.333 104 -92 184 -92c38.667 0 92 41.333 160 124v4c-8 0 -12 1.33301 -12 4c-76.667 -40 -148.667 -60 -216 -60z
" />
    <glyph glyph-name="A" unicode="A" horiz-adv-x="1052" 
d="M420 1292c36.667 0 115.334 -1.33398 236.001 -4.00098c55.333 -86.667 98 -194.667 128 -324c44 -194 133.333 -491.333 268 -892c-10.667 -2.66699 -32 -26.667 -64 -72h-4c-57.333 0 -160 1.33301 -308 4c-37.333 92.667 -72 211.334 -104 356.001
c-40 2.66699 -69.333 4 -88 4h-56c-24 -91.333 -45.333 -188.666 -64 -291.999c-39.333 -45.333 -60.666 -68 -63.999 -68h-292c-5.33301 0 -8 2.66699 -8 8c18 105.333 44.667 214.666 80 327.999c32 168.667 86.667 400.667 164 696c25.333 121.333 42.666 184 51.999 188
c35.333 28 76.666 50.667 123.999 68zM436 1260c-66.667 -280.667 -135.999 -541.999 -207.999 -783.999c-29.333 -195.333 -53.333 -319.333 -72 -372h4c38.667 0 98.667 1.33301 180 4c16 92 37.333 194.667 64 308c1.33301 56 6.66602 84 15.999 84
c16 0 88 -2.66699 216 -8c58.667 -104 100 -233.333 124 -388h40c42 0 111.333 1.33301 208 4c-130.667 377.333 -228 706.666 -292 987.999l-80 160c-38 0 -104.667 1.33301 -200 4zM532.001 1040c77.333 -82.667 116 -170.667 116 -264v-24c0 -32 -26.667 -52 -80 -60
c-34 0 -83.333 6.66699 -148 20c38.667 158.667 76 268 112 328zM464.001 736c36 -5.33301 58.667 -7.99902 68 -7.99902v52c0 37.333 -8 73.333 -24 108c-6.66699 -2.66699 -22.667 -53.334 -48 -152.001h4z" />
    <glyph glyph-name="B" unicode="B" horiz-adv-x="752" 
d="M340 1312l27.999 0.000976562c166 0 272.667 -73.333 320 -220c18.667 -44 28 -89.333 28 -136c0 -78.667 -33.333 -172 -100 -280c90.667 -58 136 -144.667 136 -260v-8c0 -182.667 -65.333 -301.334 -196 -356.001c-86 -34.667 -219.333 -52 -400 -52
c-58.667 2.66699 -102.667 4 -132 4l-4 8c-13.333 302.667 -20 480 -20 532c0 59.333 6.66699 270 20 632c44.667 50.667 100.667 88 168 112c62.667 16 113.334 24 152.001 24zM123.999 1224l0.000976562 -1108c36 -2.66699 62.667 -4 80 -4h72
c210.667 0 340 37.333 388 112c37.333 37.333 56 101.333 56 192c0 113.333 -45.333 192 -136 236c-10.667 0 -16 2.66699 -16 8c77.333 121.333 116 220 116 296c0 106.667 -45.333 200 -136 280c-41.333 29.333 -104 44 -188 44c-82.667 0 -161.334 -18.667 -236.001 -56z
M388 1100h4c50 0 79.333 -37.333 88 -112c0 -88 -69.333 -138.667 -208 -152l-4 8c-2.66699 70 -4 128.667 -4 176l-4 40c43.333 26.667 86 40 128 40zM296 996.001v-4c0 -12 1.33301 -52 4 -120h4c34.667 0 68 13.333 100 40v12c0 45.333 -17.333 68 -52 68
c-14 2.66699 -27.333 4 -40 4h-16zM356 492.001l56.002 0.000976562c56 -8.66699 84 -35.334 84 -80.001v-28c-10.667 -85.333 -49.334 -128 -116.001 -128c0 -2.66699 -9.33301 -4 -28 -4h-56c-5.33301 0 -8 4 -8 12c0 34.667 1.33301 108 4 220
c11.333 5.33301 32.666 8 63.999 8zM324.002 408.002v-4c-2.66699 -53.333 -4 -93.333 -4 -120h24c40 0 60 8 60 24c2.66699 14 4 27.333 4 40c0 37.333 -14.667 56 -44 56c-14 2.66699 -27.333 4 -40 4z" />
    <glyph glyph-name="C" unicode="C" horiz-adv-x="648" 
d="M432 1316c104.667 0 166.002 -44 184.002 -132c5.33301 -30.667 8 -68 8 -112v-20c0 -77.333 -8 -116 -24 -116c0 -8 -12 -22.667 -36 -44c-109.333 0 -164 6.66699 -164 20c-6.66699 40 -26.667 60 -60 60c-0.666992 2.66699 -14 4 -40 4h-4
c-50.667 -126 -76 -258 -76 -396c0 -150 40 -252.667 120 -308c24 -8 40 -12 48 -12h8l-4 20v84c47.333 53.333 76.666 80 87.999 80c48 0 101.333 2.66699 160 8c5.33301 -8.66699 8 -16.667 8 -24c0 -217.333 -50.667 -352 -152 -404c-36 -16 -65.333 -24 -88 -24h-48
c-106 0 -199.333 62.667 -280 188c-53.333 125.333 -80 254.666 -80 387.999c0 170.667 26.667 337.334 80 500.001c54 104 154 182.667 300 236c33.333 2.66699 50.666 4 51.999 4zM96.002 548l-0.000976562 -8.00098c0 -170 57.333 -311.333 172 -424
c33.333 -21.333 64 -32 92 -32c106.667 0 188 57.333 244 172c5.33301 34 9.33301 87.333 12 160c-68 -2.66699 -108 -4 -120 -4v-40c-10 -96 -39.333 -144 -88 -144h-16c-105.333 0 -172 92 -200 276c-2.66699 17.333 -4 40 -4 68v24c0 178.667 38.667 329.334 116 452.001
c23.333 18.667 44.666 28 63.999 28h4c38.667 0 69.334 -30.667 92.001 -92h124c2.66699 26.667 4 46.667 4 60v12c0 116.667 -16 182 -48 196c-41.333 21.333 -78.666 32 -111.999 32c-158.667 0 -264 -172 -316 -516c-13.333 -70.667 -20 -144 -20 -220z" />
    <glyph glyph-name="D" unicode="D" horiz-adv-x="836" 
d="M468 1284c155.333 0 259.335 -62.668 312.002 -188.001c37.333 -87.333 56 -172.666 56 -255.999c-26.667 -206.667 -73.334 -374.667 -140.001 -504c-68.667 -142 -171.334 -244.667 -308.001 -308c-46 -18.667 -94 -28 -144 -28h-44c-70 0 -136.667 6.66699 -200 20
c2.66699 58.667 4 97.334 4 116.001c0 180.667 1.33301 496.667 4 948c65.333 75.333 124 120.666 176 135.999c88 42.667 182.667 64 284 64zM112.002 1144c5.33301 -162 7.99902 -275.333 7.99902 -340c0 -38.667 -2.66699 -140 -8 -304l8 -388l28 -4h84
c217.333 0 353.333 65.333 408 196c72.667 110 127.334 288.667 164.001 536c0 142 -44 259.333 -132 352c-48 37.333 -109.333 56 -184 56h-36c-124 0 -237.333 -34.667 -340 -104zM372.001 1068h12.001c73.333 0 130.666 -29.333 171.999 -88
c18.667 -45.333 28 -108 28 -188c0 -188.667 -37.333 -311.334 -112 -368.001c-106.667 -66.667 -186.667 -100 -240 -100c0 2.66699 -1.33301 4 -4 4c2.66699 110.667 4 193.334 4 248.001v436c58 33.333 104.667 52 140 56zM264.002 935.999l0.000976562 -572h4
c101.333 28 152 58.667 152 92c32 76.667 48 174 48 292c0 92 -20 150.667 -60 176c-26.667 10.667 -49.334 16 -68.001 16h-28z" />
    <glyph glyph-name="E" unicode="E" horiz-adv-x="712" 
d="M500 1300c12.667 0 53.999 -1.3291 123.999 -3.99609c0 -2.66699 1.33301 -4 4 -4c2.66699 -62.667 4 -97.334 4 -104.001c0 -136 -8 -204 -24 -204c0 -8.66699 -18.667 -27.334 -56 -56.001h-124v-104c0.666992 -5.33301 3.33398 -8 8.00098 -8h224l8 -4
c2.66699 -81.333 4 -141.333 4 -180v-4c0 -14.667 1.33301 -33.334 4 -56.001c-31.333 -44.667 -59.333 -78 -84 -100h-160c-2.66699 -80.667 -5.33398 -127.334 -8.00098 -140.001c44.667 2.66699 68.667 5.33398 72 8.00098
c38.667 -2.66699 105.334 -5.33398 200.001 -8.00098c10.667 -38.667 16 -73.334 16 -104.001c0 -117.333 -14.667 -176 -44 -176c-32 -34.667 -52 -52 -60 -52c-100 0 -301.333 1.33301 -604 4c0 2.66699 -1.33301 4 -4 4c10.667 150 16 280.667 16 392v252
c0 81.333 4 228 12 440c-2.66699 48.667 -4 79.334 -4 92.001l92 112c213.333 2.66699 341.333 4 384 4zM203.999 1260c-26.667 2.66699 -46.667 4.00098 -60 4.00098l4 -236c0 -49.333 -2.66699 -180 -8 -392c0 -21.333 1.33301 -100 4 -236l-12 -172
c0 -18.667 1.33301 -54.667 4 -108c2.66699 0 4 -1.33301 4 -4c96.667 2.66699 166 4 208 4h140c68 0 129.333 -2.66699 184 -8c5.33301 63.333 8 106 8 128c-5.33301 34 -8 54 -8 60c-44 2.66699 -77.333 4 -100 4h-68c-30 0 -66 -2.66699 -108 -8l-4 8
c8 161.333 12 256 12 284l12 8h196l28 4v16c0 41.333 -1.33301 97.333 -4 168h-216c-14 0 -22 4 -24 12v176c0 13.333 -1.33301 33.333 -4 60c0 6 46.667 11.333 140 16h12l48 -4l4 8c2.66699 85.333 4 134.666 4 147.999l-4 64c-57.333 2.66699 -100 4 -128 4h-68
c-40 0 -105.333 -2.66699 -196 -8z" />
    <glyph glyph-name="F" unicode="F" horiz-adv-x="588" 
d="M128 1280h92.001c86.667 0 206.667 -1.33301 360 -4l8 -12c0 -172 -18.667 -272 -56 -300l-16 -12h-60c-18.667 0 -48 1.33301 -88 4c2.66699 -44 4 -77.333 4 -100v-20h12c122.667 0 184 -6.66699 184 -20v-12c0 -33.333 1.33301 -64 4 -92
c-13.333 -136 -28 -204 -44 -204c0 -10 -6.66699 -24.667 -20 -44l-48 4h-12c-22.667 0 -56 -1.33301 -100 -4v-24c0 -76 4 -202.667 12 -380c-4.66699 -0.666992 -23.334 -20.667 -56.001 -60l-48 4h-24c-51.333 0 -127.333 1.33301 -228 4l-4 8v188
c10.667 170.667 18.667 350.667 24 540c-2.66699 142.667 -4 258.667 -4 348c0 6 -1.33301 20.667 -4 44c4 64 17.333 96 40 96zM152.001 1244c-13.333 -210.667 -19.999 -387.998 -19.999 -531.998v-80c0 -20.667 1.33301 -39.334 4 -56.001l-16 -400
c2.66699 -36.667 4 -59.334 4 -68.001c93.333 -8 158.666 -12 195.999 -12c0 -2.66699 1.33301 -4 4 -4c0 2.66699 1.33301 4 4 4c-8 104.667 -12 214 -12 328v116c0 15.333 45.333 27.333 136 36c14 0 36.667 -1.33301 68 -4c10.667 48.667 16 94 16 136v88l-48 4h-136
c-6 0 -10 6.66699 -12 20c0 62.667 -2.66699 122.667 -8 180c6.66699 37.333 21.334 56 44.001 56h4c39.333 0 92.666 1.33301 159.999 4c8 60.667 13.333 120.667 16 180l-8 4c-152 2.66699 -258.667 4 -320 4c-8 0 -33.333 -1.33301 -76 -4z" />
    <glyph glyph-name="G" unicode="G" 
d="M392 1256c130.667 0 228.001 -48.0029 292.001 -144.003c16 -22 24 -50 24 -84v-52c0 -80 -20 -137.333 -60 -172c-128 6 -192 14 -192 24v36c-7.33301 85.333 -34 128 -80 128c-2.66699 0 -6.66699 1.33301 -12 4c-41.333 -39.333 -73.333 -132.666 -96 -279.999
c-5.33301 -44 -9.33301 -89.333 -12 -136c14 -216 64.667 -324 152 -324c12 0 32 4 60 12c-2.66699 48 -6.66699 90.667 -12 128c-48.667 2.66699 -79.334 4 -92.001 4l-4 8c-5.33301 105.333 -8 165.333 -8 180l88 80c132.667 2.66699 223.334 4 272.001 4l4 -8v-236
c0 -133.333 -16 -214.666 -48 -243.999c-99.333 -122.667 -203.333 -184 -312 -184h-4c-154.667 0 -257.334 72 -308.001 216c-29.333 99.333 -44 214 -44 344c0 316.667 50.667 507.334 152 572.001c83.333 82.667 163.333 124 240 124zM100.001 591.997
l0.00195312 -7.99609c0 -250.667 36 -396 108 -436c44 -45.333 109.333 -68 196 -68c119.333 0 208.666 60 267.999 180c8 58 12 124.667 12 200v180c-100 -2.66699 -172 -4 -216 -4v-4c2.66699 -47.333 4 -86 4 -116h96c5.33301 -0.666992 8 -3.33398 8 -8.00098
c2.66699 -44.667 4 -79.334 4 -104.001c-22 -120 -78 -180 -168 -180h-12c-78 0 -132.667 77.333 -164 232c-5.33301 19.333 -9.33301 63.333 -12 132c0 132.667 28 262 84 388c41.333 61.333 84 92 128 92c62 0 103.333 -49.333 124 -148v-16
c22.667 0 58.667 -1.33301 108 -4c5.33301 29.333 8 62.666 8 99.999v20c0 97.333 -72 162.666 -216 195.999c-14 2.66699 -30 4 -48 4h-32c-126.667 0 -213.334 -109.333 -260.001 -328c-13.333 -71.333 -20 -171.333 -20 -300z" />
    <glyph glyph-name="H" unicode="H" horiz-adv-x="760" 
d="M100 1288c89.333 -2.66699 154.665 -3.99805 195.998 -3.99805c0.666992 -5.33301 3.33398 -8 8.00098 -8c5.33301 -102 8 -204.667 8 -308v-84h116c-2.66699 136 -4 236 -4 300v20c14 17.333 39.333 38.666 76 63.999h4c54.667 0 137.334 1.33301 248.001 4
c0 -2.66699 1.33301 -4 4 -4c0 -54.667 1.33301 -129.334 4 -224.001c-2.66699 -391.333 -4 -690 -4 -896c2.66699 -43.333 4 -67.333 4 -72c-6.66699 -0.666992 -28 -26 -64 -76c-36 2.66699 -62.667 4 -80 4h-196l-8 4l16 428v80h-108c8 -148 12 -232 12 -252
c-2.66699 -114 -4 -178 -4 -192l-76 -72c-16 0 -88 2.66699 -216 8c-24 102.667 -36 188 -36 256c0 60.667 4 192.667 12 396c-5.33301 288 -8 468 -8 540c47.333 42 79.333 71.333 96 88zM127.999 1256c5.33301 -196.667 8 -319.332 8 -367.999
c-10.667 -240.667 -16 -432.667 -16 -576v-76c0 -28 1.33301 -70.667 4 -128h172c0 42.667 1.33301 90.667 4 144c0 24 -6.66699 146.667 -20 368c2.66699 0 4 1.33301 4 4c49.333 -2.66699 85.333 -4 108 -4h136c5.33301 -0.666992 8 -3.33398 8 -8.00098
c-5.33301 -264.667 -8 -434 -8 -508h168c18.667 0 28 2.66699 28 8c0 252.667 1.33301 562 4 928c-2.66699 75.333 -4 142 -4 200c-53.333 -2.66699 -93.333 -4 -120 -4h-72l-8 -4l16 -380c-2.66699 0 -4 -1.33301 -4 -4c-49.333 2.66699 -85.333 4 -108 4h-140
c-5.33301 0 -8 2.66699 -8 8v92c0 108.667 -2.66699 208.667 -8 300h-64c-17.333 0 -44 1.33301 -80 4z" />
    <glyph glyph-name="I" unicode="I" horiz-adv-x="316" 
d="M112 1296l179.999 -0.000976562c6 0 10 -6.66699 12 -20c8 -148.667 12 -248.667 12 -300c0 -47.333 -5.33301 -214 -16 -500v-24c0 -81.333 1.33301 -208 4 -380l-76 -72c-16 0 -88 2.66699 -216 8c0 2.66699 -1.33301 4 -4 4c-5.33301 130.667 -8 217.334 -8 260.001
l16 572c0 42.667 -1.33301 148 -4 316l-4 24c66.667 74 101.334 111.333 104.001 112zM135.999 1260c0 -86.667 1.33301 -236 4 -448c-5.33301 -338.667 -13.333 -573.334 -24 -704.001h156c-2.66699 96.667 -4 166 -4 208v172l16 488c0 38.667 -4 133.334 -12 284.001h-136
z" />
    <glyph glyph-name="J" unicode="J" horiz-adv-x="680" 
d="M660 1240l8 -11.999c5.33301 -238.667 9.33301 -370.667 12 -396c-14 -368 -24.667 -561.333 -32 -580c-8.66699 -51.333 -42 -110 -100 -176c-67.333 -50.667 -138 -76 -212 -76c-132 0 -224 72 -276 216c-20.667 37.333 -40.667 88 -60 152l96 104h160
c5.33301 0 13.333 -57.333 24 -172c5.33301 -10.667 9.33301 -16 12 -16c45.333 13.333 68 36 68 68c2 21.333 4.66699 32 8 32l-4 20c5.33301 205.333 8 318.666 8 339.999c-5.33301 173.333 -8 296 -8 368l-4 28c0 5.33301 28 36 84 92c124.667 5.33301 196.667 8 216 8z
M472 1200c5.33301 -264 8.00195 -445.334 8.00195 -544.001c-10 -213.333 -26 -333.333 -48 -360c-8.66699 -48 -35.334 -72 -80.001 -72c0 -2.66699 -2.66699 -4 -8 -4c-72 0 -108 61.333 -108 184c0 6.66699 -1.33301 17.334 -4 32.001h-104c18 -106 38 -183.333 60 -232
c28.667 -56 62 -90.667 100 -104c52.667 -18.667 92.667 -28 120 -28h32c89.333 0 150.666 76 183.999 228c13.333 289.333 20 468 20 536c0 60 -2.66699 182.667 -8 368c-2.66699 0 -4 1.33301 -4 4z" />
    <glyph glyph-name="K" unicode="K" horiz-adv-x="688" 
d="M300 1292c0 -2.66699 1.33398 -4 4.00098 -4c-10.667 -131.333 -16 -251.333 -16 -360v-32h4c44.667 113.333 106 238.666 184 375.999h4c53.333 -51.333 122.666 -107.333 207.999 -168v-4c-68.667 -114 -147.334 -259.333 -236.001 -436
c14.667 -13.333 37.334 -80 68.001 -200c24 -64 73.333 -184 148 -360c-20 -35.333 -33.333 -54 -40 -56h-208c-44.667 49.333 -91.334 133.333 -140.001 252h-4v-228c0 -14 -12 -38 -36 -72h-68c-39.333 0 -92.666 1.33301 -159.999 4c0 2.66699 -1.33301 4 -4 4
c-2.66699 84.667 -4 147.334 -4 188.001v204c0 34 -1.33301 71.333 -4 112c16 168 24 277.333 24 328v384c39.333 40 79.333 60 120 60c6.66699 0 58.667 2.66699 156 8zM256.001 1256c-31.333 0 -73.998 -2.66406 -127.998 -7.99707v-128
c0 -8.66699 1.33301 -15.334 4 -20.001l-4 -24v-16l-20 -620v-352c60.667 2.66699 106 4 136 4v244c0 146.667 5.33301 220 16 220h20c5.33301 -2 41.333 -91.333 108 -268l80 -152h152c-78 168 -138 330.667 -180 488c-14 20.667 -22 34 -24 40
c96 192.667 173.333 336.667 232 432c-64.667 43.333 -119.334 84.666 -164.001 123.999c-2.66699 0 -4 -1.33301 -4 -4c-61.333 -114.667 -117.333 -233.334 -168 -356.001c-8 -7.33301 -17.333 -23.333 -28 -48c-8.66699 0 -19.334 4 -32.001 12
c2.66699 26.667 4 46.667 4 60v92c0 62 4 156.667 12 284c-5.33301 -2.66699 -9.33301 -4 -12 -4z" />
    <glyph glyph-name="L" unicode="L" horiz-adv-x="720" 
d="M124 1296l251.999 -0.000976562l8 -4c2.66699 -84.667 4 -147.334 4 -188.001v-20l-16 -708c172 5.33301 281.333 8 328 8l4 -8v-48c0 -35.333 5.33301 -119.333 16 -252c0 -1.33301 -25.333 -26.666 -76 -75.999c-258.667 2.66699 -460 4 -604 4h-32
c-5.33301 0 -8 2.66699 -8 8c0 186.667 12 497.334 36 932.001v208c0 18.667 -1.33301 48 -4 88c52.667 37.333 83.334 56 92.001 56zM143.999 1260c-8 -524.667 -18.667 -906.001 -32 -1144c134 5.33301 231.333 8 292 8l268 -12c5.33301 -2.66699 9.33301 -4 12 -4v4
c-8 97.333 -12 165.333 -12 204v36c-172 -5.33301 -281.333 -8 -328 -8l-4 8c0 68 5.33301 317.333 16 748c0 26.667 -1.33301 81.334 -4 164.001h-168z" />
    <glyph glyph-name="M" unicode="M" horiz-adv-x="792" 
d="M100 1292l212.005 0.000976562c6 -1.33301 40.667 -85.333 104 -252h4c55.333 136.667 88.666 210 99.999 220c57.333 18.667 90.666 28 99.999 28h164c5.33301 -0.666992 8 -3.33398 8 -8.00098v-1200c-25.333 -30 -48 -55.333 -68 -76l-40 4h-72
c-61.333 0 -92 4 -92 12c-5.33301 72 -9.33301 157.333 -12 256c0 17.333 1.33301 40 4 68c-2.66699 66 -4 131.333 -4 196v128c-46.667 -56 -89.334 -84 -128.001 -84c-6 0 -22 17.333 -48 52v-552c-12.667 -16.667 -47.334 -44.667 -104.001 -84
c-14.667 2.66699 -25.334 4 -32.001 4c-32 0 -93.333 1.33301 -184 4c0 2.66699 -1.33301 4 -4 4l16 756l-24 388c-0 56 9.33301 84 28 84zM132.005 1256c5.33301 -166 8 -308.667 8 -428c-10.667 -131.333 -18.667 -368.666 -24 -711.999l180 -8l4 8v708
c0 20.667 6.66699 34 20 40h8c53.333 -77.333 96 -145.333 128 -204c31.333 32.667 71.333 100.667 120 204h24c7.33301 0 16.666 -34.667 27.999 -104c-2.66699 -22.667 -4 -40 -4 -52c0 -22.667 -2.66699 -188 -8 -496v-96c42.667 0 90.667 -2.66699 144 -8v1148h-124
c-3.33301 0 -20.666 -38.667 -51.999 -116l-116 -240h-4c-39.333 29.333 -86 126.666 -140 291.999c-4 0 -13.333 22.667 -28 68h-144z" />
    <glyph glyph-name="N" unicode="N" horiz-adv-x="820" 
d="M800 1296c8 -14.667 12 -38.6689 12 -72.002c0 -19.333 -2.66699 -56.666 -8 -111.999c5.33301 -84 10.666 -430.667 15.999 -1040l-68 -72h-160c-58.667 94.667 -121.334 220 -188.001 376c-19.333 49.333 -44.666 100 -75.999 152v-8
c0 -89.333 -4 -234.666 -12 -435.999l-76 -84c-26.667 2.66699 -46.667 4 -60 4h-152c-5.33301 0 -8 2.66699 -8 8v252c-8 531.333 -14.667 850 -20 956c54 42.667 86 66.667 96 72c31.333 0 90 -1.33301 176 -4c83.333 -165.333 151.333 -321.333 204 -468
c8 -17.333 12 -29.333 12 -36h8c0 21.333 1.33301 49.333 4 84c-5.33301 178.667 -8 292 -8 340c52.667 53.333 83.334 80 92.001 80c18.667 0 90.667 2.66699 216 8zM600 1256l-0.00195312 -3.99902c5.33301 -164.667 9.33301 -415.334 12 -752.001l-12 -8h-16
c-18.667 26 -74.667 156.667 -168 392c-31.333 84.667 -84.666 208.667 -159.999 372h-8c-28 0 -70.667 1.33301 -128 4c10.667 -244.667 16 -451.334 16 -620.001c-5.33301 -80.667 -9.33301 -178 -12 -292c2.66699 -152 5.33398 -228 8.00098 -228
c28 0 78.667 -1.33301 152 -4c11.333 393.333 20.666 614.666 27.999 663.999c12 0 20 1.33301 24 4c104 -211.333 182.667 -390 236 -536c40 -85.333 76 -128 108 -128c56.667 -5.33301 92.667 -8 108 -8v4c-5.33301 498.667 -10.666 833.334 -15.999 1004
c5.33301 64.667 8 102 8 112c-2.66699 14.667 -4 25.334 -4 32.001c-69.333 -5.33301 -128 -8 -176 -8z" />
    <glyph glyph-name="O" unicode="O" horiz-adv-x="800" 
d="M468 1300l3.99902 -0.000976562c146 0 248.667 -130.667 308 -392c13.333 -67.333 20 -139.333 20 -216v-64c0 -227.333 -49.333 -403.333 -148 -528c-59.333 -66.667 -155.333 -100 -288 -100c-117.333 0 -214.666 68 -291.999 204c-48 60.667 -72 136.667 -72 228
c0 258.667 40 469.334 120 632.001c48 74 116 139.333 204 196c38 26.667 86 40 144 40zM107.999 603.999l0.000976562 -39.999c0 -193.333 58.667 -332 176 -416c55.333 -26.667 107.333 -40 156 -40h24c110.667 0 188 41.333 232 124c48 118.667 72 256 72 412v32
c-4.66699 309.333 -82 502.666 -232 579.999c-24.667 8 -47.334 12 -68.001 12c-144 0 -244 -112 -300 -336c-40 -128.667 -60 -238 -60 -328zM436 1104c90.667 0 146.666 -101.333 167.999 -304c8 -102 12 -155.333 12 -160c0 -180 -28 -292 -84 -336
c-29.333 -13.333 -54.666 -20 -75.999 -20h-12c-67.333 0 -126 40 -176 120c-21.333 70.667 -32 150.667 -32 240c0 218.667 61.333 370.667 184 456c6 0 11.333 1.33301 16 4zM271.999 676l-0.000976562 -80c0 -123.333 24 -202 72 -236c34 -26.667 60.667 -40 80 -40
c56 22.667 84 70.667 84 144v152c0 112 -20 217.333 -60 316c-19.333 26.667 -48.666 40 -87.999 40h-12c-50.667 -65.333 -76 -164 -76 -296z" />
    <glyph glyph-name="P" unicode="P" horiz-adv-x="784" 
d="M448 1324c171.333 0 280.667 -84 328 -252c5.33301 -21.333 8 -44 8 -68v-12c0 -159.333 -74.667 -280.666 -224 -363.999c-141.333 -48 -228 -72 -260 -72c5.33301 -109.333 8 -201.333 8 -276c0 -21.333 -2.66699 -88 -8 -200
c-36 -30.667 -69.333 -57.334 -100 -80.001c-133.333 6 -200 12.667 -200 20c0 282.667 6.66699 672 20 1168c66 54 135.333 87.333 208 100c74 24 147.333 36 220 36zM136.001 1224c-5.33301 -156.667 -7.99902 -300.668 -7.99902 -432.001c0 -90.667 1.33301 -316 4 -676
h136c5.33301 86 8 143.333 8 172c0 22 -2.66699 119.333 -8 292c185.333 40 300 78.667 344 116c93.333 84 140 185.333 140 304c0 146.667 -77.333 241.334 -232 284.001c-40 5.33301 -65.333 8 -76 8c-86.667 0 -189.334 -22.667 -308.001 -68zM416.002 1100h11.999
c77.333 0 116 -56 116 -168v-12c0 -80.667 -36 -136.667 -108 -168l-20 -4c-70 0 -115.333 49.333 -136 148l-4 28c0 82 40 139.333 120 172c4.66699 2.66699 11.334 4 20.001 4zM328.001 999.999c-10.667 -26.667 -16 -49.333 -16 -68v-24c0 -48.667 20 -86 60 -112h8
c24 19.333 36 54 36 104c0 66.667 -22.667 100 -68 100h-20z" />
    <glyph glyph-name="Q" unicode="Q" horiz-adv-x="872" 
d="M484 1306l19.999 0.000976562c88.667 0 175.334 -89.333 260.001 -268c53.333 -172 80 -334.667 80 -488v-8c0 -96.667 -20 -187.334 -60 -272.001c3.33301 0 32.666 -41.333 87.999 -124c-5.33301 -57.333 -8 -102.666 -8 -135.999
c-92.667 -66.667 -143.334 -100 -152.001 -100l-96 96c-35.333 -5.33301 -70 -8 -104 -8h-60c-194 0 -324.667 96 -392 288c-40 129.333 -60 245.333 -60 348c0 204.667 40 366 120 484c80.667 81.333 191.334 142.666 332.001 183.999c10.667 2.66699 21.334 4 32.001 4z
M131.999 630.001c0 -196.667 25.334 -322 76.001 -376c54 -90.667 127.333 -136 220 -136h12c52.667 0 120.667 10.667 204 32l72 -92c64 52 101.333 81.333 112 88v8c-36.667 50 -63.334 88.667 -80.001 116c42.667 83.333 64 176.666 64 279.999
c0 186 -36 367.333 -108 544c-74 120 -143.333 180 -208 180c-92 0 -181.333 -57.333 -268 -172c-64 -89.333 -96 -246.666 -96 -471.999zM452 1110c122 0 200.668 -173.334 236.001 -520.001v-12c0 -73.333 -21.333 -126.666 -64 -159.999h-4c-2 0 -31.333 40 -88 120
c-61.333 -46 -92 -72.667 -92 -80l124 -200v-12c-30.667 -16 -53.334 -24 -68.001 -24h-28c-82 0 -151.333 61.333 -208 184c-16 58 -24 112.667 -24 164v76c0 250.667 60 402.667 180 456zM268.001 618v-23.999c0 -186 58.667 -298 176 -336c4.66699 -2.66699 10 -4 16 -4
l-92 128v4c18 66.667 35.333 100 52 100c0 3.33301 38.667 36.666 116 99.999l28 -32c5.33301 46 8 80.667 8 104c0 106.667 -36 216 -108 328c-35.333 26.667 -66 40 -92 40c-69.333 -50 -104 -186 -104 -408z" />
    <glyph glyph-name="R" unicode="R" horiz-adv-x="896" 
d="M472 1348c138.667 0 233.335 -77.334 284.002 -232.001c10.667 -40 16 -82.667 16 -128c0 -89.333 -57.333 -196 -172 -320c69.333 -87.333 134.666 -200.666 195.999 -339.999l100 -192l-60 -84l-48 4h-32c-42 0 -111.333 1.33301 -208 4
c-107.333 171.333 -190 311.333 -248 420c-8 6 -12 12.667 -12 20h-4v-124c0 -64 1.33301 -164 4 -300l-92 -76l-28 4h-16c-31.333 0 -80.666 1.33301 -147.999 4c0 2.66699 -1.33301 4 -4 4c5.33301 274 10.666 478 15.999 612c-8 82 -12 202 -12 360v124
c92 104.667 162.667 162 212 172c87.333 45.333 172.666 68 255.999 68zM108.001 1168c2.66699 -156.667 8.00098 -279.333 16.001 -368c-8 -201.333 -14.667 -430.666 -20 -687.999h4c22 0 71.333 -1.33301 148 -4c-2.66699 67.333 -4 120.666 -4 159.999v68
c0 86.667 1.33301 202.667 4 348c2.66699 0 4 1.33301 4 4c25.333 0 49.333 -25.333 72 -76c112 -162.667 202.667 -312 272 -448h240v4c-52 91.333 -106.667 199.333 -164 324c-22 38 -62 98 -120 180c120 128.667 180 234 180 316c0 157.333 -60 261.333 -180 312
c-24 8 -56 13.333 -96 16c-96.667 0 -207.334 -40 -332.001 -120zM440.002 1136c44 0 74.667 -18.666 92 -55.999c5.33301 -10.667 8 -25.334 8 -44.001v-24c-12.667 -106.667 -54 -160 -124 -160h-4c-71.333 0 -119.333 26.667 -144 80c-2.66699 14.667 -4 26.667 -4 36
c0 76.667 52 132.667 156 168h20zM296.002 960.001c0 -42 38.667 -67.333 116 -76c21.333 28.667 32 54 32 76v24c0 40 -22.667 60 -68 60h-32c-32 -7.33301 -48 -35.333 -48 -84z" />
    <glyph glyph-name="S" unicode="S" 
d="M456 1324l12.0029 0.000976562c92 0 156 -52 192 -156c10.667 -46.667 16 -81.334 16 -104.001c-8 -101.333 -18.667 -152 -32 -152l-64 -60c-90.667 0 -136 6.66699 -136 20c0 75.333 -28 123.333 -84 144h-16c-10.667 -1.33301 -16 -12 -16 -32v-4
c0 -50 89.333 -143.333 268 -280c80 -75.333 120 -174 120 -296c0 -88 -33.333 -174.667 -100 -260c-80.667 -96 -167.334 -144 -260.001 -144h-12c-140.667 0 -240.667 92 -300 276c-10.667 68.667 -17.334 126 -20.001 172c57.333 37.333 98.666 56 123.999 56l156 8
c22 -122.667 51.333 -184 88 -184c24 27.333 36 58 36 92c0 62 -84 135.333 -252 220c-117.333 91.333 -176 191.333 -176 300c0 114.667 56 214.667 168 300c124 56 220 84 288 84zM128.003 980.001l-0.00195312 -32c0 -86 62.667 -172.667 188 -260
c162.667 -63.333 244 -139.333 244 -228c0 -79.333 -41.333 -134 -124 -164c-6.66699 0 -17.334 -1.33301 -32.001 -4c-59.333 0 -100.666 57.333 -123.999 172v12h-24c-22.667 0 -56 -1.33301 -100 -4v-20c0 -138.667 16 -220 48 -244c52 -64 109.333 -96 172 -96h32
c132.667 0 215.334 54.667 248.001 164c16 48.667 24 86 24 112v36c0 130 -64 236.667 -192 320c-128 104.667 -192 180.667 -192 228v8c0 63.333 36 107.333 108 132l28 4c50.667 0 93.334 -53.333 128.001 -160h72v4c8 60.667 12 96.667 12 108
c0 86 -30.667 152.667 -92 200c-28 16 -60 24 -96 24c-93.333 0 -180 -42.667 -260 -128c-45.333 -70.667 -68 -132 -68 -184z" />
    <glyph glyph-name="T" unicode="T" horiz-adv-x="776" 
d="M764 1272c0 -2.66699 1.33203 -4 3.99902 -4c2.66699 -96.667 5.33398 -164.667 8.00098 -204c-21.333 -43.333 -40 -71.333 -56 -84h-112c-13.333 0 -33.333 1.33301 -60 4c2.66699 -44 4 -77.333 4 -100v-76c-8 -432 -12 -682.667 -12 -752
c-3.33301 0 -19.333 -18.667 -48 -56c-96.667 2.66699 -166 4 -208 4h-48c-5.33301 0 -8 2.66699 -8 8v228c0 95.333 1.33301 183.333 4 264c-2.66699 40.667 -4 98 -4 172c0 66 4 166 12 300h-212c-6 0 -15.333 74.667 -28 224c39.333 31.333 70 54 92 68h184
c117.333 0 280 1.33301 488 4zM119.999 1236c0 -8 2.66699 -61.333 8 -160h68c52.667 0 102 2.66699 148 8c0 -2.66699 1.33301 -4 4 -4c-10.667 -174 -16 -314 -16 -420c8 -313.333 12 -500 12 -560h4l160 -8c0 90 4 332.667 12 728c0 44.667 -2.66699 132.667 -8 264l8 4
h192l28 4v44c0 22.667 -1.33301 56 -4 100h-616z" />
    <glyph glyph-name="U" unicode="U" horiz-adv-x="668" 
d="M104 1260c25.333 0 77.332 -1.33105 155.999 -3.99805c2.66699 -2.66699 5.33398 -18.667 8.00098 -48c-18.667 -114 -28 -214 -28 -300c8 -162 12 -326 12 -492v-52c0 -30.667 25.333 -54.667 76 -72c15.333 0 26 97.333 32 292c-5.33301 164 -8 298.667 -8 404v164
c2.66699 6 29.334 28.667 80.001 68h228c5.33301 -0.666992 8 -3.33398 8 -8.00098c-8 -188 -12 -308 -12 -360c8 -168.667 12 -290 12 -364c0 -244.667 -53.333 -391.334 -160 -440.001c-50.667 -32 -109.334 -48 -176.001 -48c-155.333 0 -259.333 76 -312 228
c-8 35.333 -14.667 74 -20 116c5.33301 100.667 8 207.334 8 320.001c-5.33301 216 -8 364 -8 444v40c0 27.333 34.667 64.666 104 111.999zM127.999 1228c-5.33301 -212 -7.99902 -368.001 -7.99902 -468.001c0 -354.667 10.667 -532 32 -532
c57.333 -101.333 134.666 -152 231.999 -152c98 0 158 20 180 60c48 78.667 72 198.667 72 360c0 38.667 -4 158.667 -12 360c0 93.333 4 204 12 332h-152l-20 -4v-340c0 -344 -12 -516 -36 -516c-20 -45.333 -48 -68 -84 -68h-4c-80 12.667 -120 48.667 -120 108
c0 170.667 -4 349.334 -12 536.001c0 96 9.33301 201.333 28 316l-8 4c-22.667 0 -56 1.33301 -100 4z" />
    <glyph glyph-name="V" unicode="V" horiz-adv-x="976" 
d="M264 1284c39.333 -68.667 88.666 -260.668 147.999 -576.001c2.66699 0 4 -4 4 -12h4c56 147.333 100 290 132 428c0 51.333 29.333 87.333 88 108c28.667 16 71.334 24 128.001 24c26.667 0 96 -1.33301 208 -4v-4c-64 -149.333 -117.333 -308 -160 -476
c-44 -203.333 -121.333 -436.666 -232 -699.999l-64 -68h-128l-48 -4c-36 58 -108 308.667 -216 752c-49.333 192 -92 332 -128 420c38 63.333 63.333 99.333 76 108c10 0 72.667 1.33301 188 4zM116 1244c90.667 -325.333 189.336 -704 296.003 -1136
c31.333 0 80.666 -1.33301 147.999 -4c106.667 246 188 496.667 244 752c37.333 138.667 80 260 128 364h-4c-83.333 2.66699 -136.666 4 -159.999 4c-56 0 -84 -12 -84 -36c-50.667 -162 -105.334 -366 -164.001 -612c-31.333 -78 -51.333 -122 -60 -132
c-60.667 177.333 -115.334 397.333 -164.001 660c-30.667 98.667 -49.334 148 -56.001 148c-82.667 -2 -124 -4.66699 -124 -8z" />
    <glyph glyph-name="W" unicode="W" horiz-adv-x="1128" 
d="M908 1316c146.667 0 220 -5.33105 220 -15.998v-4c-34.667 -256.667 -62.667 -483.334 -84 -680.001c-24 -156.667 -58.667 -338 -104 -544c-33.333 -47.333 -52 -71.333 -56 -72h-216c-17.333 20 -36 61.333 -56 124h-8c-37.333 -82.667 -58.666 -124 -63.999 -124
c-104.667 2.66699 -179.334 4 -224.001 4c-48 115.333 -94.667 275.333 -140 480c-26.667 92.667 -58.667 243.334 -96 452.001l-80 208c34 80 75.333 120 124 120c0 7.33301 50.667 12.666 152 15.999c8 -17.333 38.667 -128 92 -332c29.333 -113.333 69.333 -244 120 -392
h4c46.667 56 85.334 84 116.001 84c14 5.33301 24.667 8 32 8c40 -48.667 60 -79.334 60 -92.001h8c29.333 114.667 62.666 348 99.999 700c0 18.667 18.667 32 56 40c18 13.333 32.667 20 44 20zM924 1280l-0.000976562 -4c-32 -286 -66.667 -502 -104 -648l-56 -208h-8
l-116 172h-4c-31.333 -58 -72.666 -116.667 -123.999 -176h-8c-80 212 -162.667 488 -248 828h-20c-47.333 0 -91.333 -5.33301 -132 -16c96 -304.667 166.667 -591.334 212 -860.001c0 -46 25.333 -138 76 -276h156c6.66699 1.33301 36 57.333 88 168h8
c46 -74 74 -127.333 84 -160l188 8c56 252 96 498.667 120 740c29.333 204.667 48 347.334 56 428.001h-4c-14.667 2.66699 -26.667 4 -36 4h-128z" />
    <glyph glyph-name="X" unicode="X" horiz-adv-x="868" 
d="M648 1288l216 -12.0039c2.66699 -5.33301 4 -9.33301 4 -12c-80.667 -227.333 -164.667 -416.666 -252 -567.999v-4c94 -223.333 171.333 -423.333 232 -600c5.33301 -17.333 8 -29.333 8 -36l-56 -56c-18.667 0 -92 2.66699 -220 8c-32 76 -74.667 188 -128 336
c-4.66699 -3.33301 -20.667 -44.666 -48 -123.999c-40 -91.333 -66.667 -148.666 -80 -171.999l-44 -44h-272c-5.33301 0 -8 2.66699 -8 8c96 276.667 192 503.334 288 680.001c-128 304.667 -197.333 474 -208 508l72 76h176c20.667 -23.333 50 -99.333 88 -228
c12.667 -48 22 -72 28 -72c18.667 29.333 48 112 88 248c62 38.667 100.667 60 116 64zM664 1256c-72 -190.667 -134.666 -326.668 -187.999 -408.001c-46.667 60.667 -88 160.667 -124 300c-22.667 58 -37.334 90 -44.001 96h-112
c59.333 -179.333 132.666 -350 219.999 -512v-4c-125.333 -254.667 -221.333 -464 -288 -628h8c24.667 0 83.334 -1.33301 176.001 -4l132 316c28 52.667 45.333 80.667 52 84c50 -128.667 102 -244.667 156 -348c7.33301 -32 19.333 -48 36 -48
c25.333 -2.66699 53.333 -4 84 -4h12l28 -4c-44.667 138.667 -122 338.667 -232 600v4c88 156.667 162.667 319.334 224 488.001c10.667 32 16 52 16 60z" />
    <glyph glyph-name="Y" unicode="Y" horiz-adv-x="908" 
d="M268 1264c8 -5.33301 37.332 -91.998 87.999 -259.998c16.667 -37.333 27.334 -56 32.001 -56c29.333 54 76 148.667 140 284l100 12l276 -12l4 -8c-94 -166 -204.667 -342 -332 -528c-16 -28.667 -25.333 -43.334 -28 -44.001c2.66699 -62.667 4 -109.334 4 -140.001
v-56c-8 -148.667 -12 -278 -12 -388v-8c0 -5.33301 -6.66699 -25.333 -20 -60l-48 4c-38.667 0 -98.667 1.33301 -180 4l-4 8c0 45.333 2.66699 238.666 8 579.999c-102.667 162.667 -174.667 301.334 -216 416.001c-40 100 -66.667 170.667 -80 212
c46 24 103.333 36 172 36c48.667 2.66699 80.667 4 96 4zM123.999 1224c62 -196.667 134 -370.001 216 -520.001c4 -0.666992 20 -28.667 48 -84c0 -77.333 -2.66699 -245.333 -8 -504c-2.66699 -4.66699 -4 -10 -4 -16c58.667 -8 102.667 -12 132 -12v32
c0 92.667 4 204.667 12 336c0 34.667 -1.33301 102.667 -4 204l264 408l76 132l-220 12c-86 -187.333 -158 -316.666 -216 -387.999h-8c-60 100.667 -108 218 -144 352l-20 56z" />
    <glyph glyph-name="Z" unicode="Z" horiz-adv-x="868" 
d="M448 1300h28.0029c80 0 189.333 -1.33301 328 -4c2.66699 -5.33301 4 -9.33301 4 -12c0 -32 -1.33301 -93.333 -4 -184c-62.667 -91.333 -137.334 -218 -224.001 -380c-38.667 -54.667 -101.334 -184 -188.001 -388h4l220 16h232c8 0 14.667 -29.333 20 -88
c0 -136 -10.667 -204 -32 -204c-7.33301 -22 -19.333 -39.333 -36 -52c-36.667 0 -62 1.33301 -76 4l-704 -8c-13.333 50.667 -20 96 -20 136v140c0 7.33301 61.333 110 184 308c31.333 67.333 111.333 211.333 240 432h-360c-8 0 -14.667 58.667 -20 176
c48.667 53.333 78 80 88 80c127.333 18.667 232.666 28 315.999 28zM148.003 1240l8 -107.999h200c69.333 0 153.333 -2.66699 252 -8l4 -8c-96.667 -174 -182 -318 -256 -432c-66 -132.667 -148.667 -275.334 -248 -428.001l8 -144h4c139.333 0 375.333 1.33301 708 4
c5.33301 70 8 118 8 144c-5.33301 35.333 -8 54 -8 56h-192l-292 -20c0 2.66699 -1.33301 4 -4 4c106 248 204.667 442.667 296 584c30.667 65.333 76 141.333 136 228v12c0 24 1.33301 70.667 4 140c-172 2.66699 -281.333 4 -328 4c-81.333 0 -181.333 -9.33301 -300 -28z
" />
    <glyph glyph-name="a" unicode="a" horiz-adv-x="1052" 
d="M420 1292c36.667 0 115.334 -1.33398 236.001 -4.00098c55.333 -86.667 98 -194.667 128 -324c44 -194 133.333 -491.333 268 -892c-10.667 -2.66699 -32 -26.667 -64 -72h-4c-57.333 0 -160 1.33301 -308 4c-37.333 92.667 -72 211.334 -104 356.001
c-40 2.66699 -69.333 4 -88 4h-56c-24 -91.333 -45.333 -188.666 -64 -291.999c-39.333 -45.333 -60.666 -68 -63.999 -68h-292c-5.33301 0 -8 2.66699 -8 8c18 105.333 44.667 214.666 80 327.999c32 168.667 86.667 400.667 164 696c25.333 121.333 42.666 184 51.999 188
c35.333 28 76.666 50.667 123.999 68zM436 1260c-66.667 -280.667 -135.999 -541.999 -207.999 -783.999c-29.333 -195.333 -53.333 -319.333 -72 -372h4c38.667 0 98.667 1.33301 180 4c16 92 37.333 194.667 64 308c1.33301 56 6.66602 84 15.999 84
c16 0 88 -2.66699 216 -8c58.667 -104 100 -233.333 124 -388h40c42 0 111.333 1.33301 208 4c-130.667 377.333 -228 706.666 -292 987.999l-80 160c-38 0 -104.667 1.33301 -200 4zM532.001 1040c77.333 -82.667 116 -170.667 116 -264v-24c0 -32 -26.667 -52 -80 -60
c-34 0 -83.333 6.66699 -148 20c38.667 158.667 76 268 112 328zM464.001 736c36 -5.33301 58.667 -7.99902 68 -7.99902v52c0 37.333 -8 73.333 -24 108c-6.66699 -2.66699 -22.667 -53.334 -48 -152.001h4z" />
    <glyph glyph-name="b" unicode="b" horiz-adv-x="752" 
d="M340 1312l27.999 0.000976562c166 0 272.667 -73.333 320 -220c18.667 -44 28 -89.333 28 -136c0 -78.667 -33.333 -172 -100 -280c90.667 -58 136 -144.667 136 -260v-8c0 -182.667 -65.333 -301.334 -196 -356.001c-86 -34.667 -219.333 -52 -400 -52
c-58.667 2.66699 -102.667 4 -132 4l-4 8c-13.333 302.667 -20 480 -20 532c0 59.333 6.66699 270 20 632c44.667 50.667 100.667 88 168 112c62.667 16 113.334 24 152.001 24zM123.999 1224l0.000976562 -1108c36 -2.66699 62.667 -4 80 -4h72
c210.667 0 340 37.333 388 112c37.333 37.333 56 101.333 56 192c0 113.333 -45.333 192 -136 236c-10.667 0 -16 2.66699 -16 8c77.333 121.333 116 220 116 296c0 106.667 -45.333 200 -136 280c-41.333 29.333 -104 44 -188 44c-82.667 0 -161.334 -18.667 -236.001 -56z
M388 1100h4c50 0 79.333 -37.333 88 -112c0 -88 -69.333 -138.667 -208 -152l-4 8c-2.66699 70 -4 128.667 -4 176l-4 40c43.333 26.667 86 40 128 40zM296 996.001v-4c0 -12 1.33301 -52 4 -120h4c34.667 0 68 13.333 100 40v12c0 45.333 -17.333 68 -52 68
c-14 2.66699 -27.333 4 -40 4h-16zM356 492.001l56.002 0.000976562c56 -8.66699 84 -35.334 84 -80.001v-28c-10.667 -85.333 -49.334 -128 -116.001 -128c0 -2.66699 -9.33301 -4 -28 -4h-56c-5.33301 0 -8 4 -8 12c0 34.667 1.33301 108 4 220
c11.333 5.33301 32.666 8 63.999 8zM324.002 408.002v-4c-2.66699 -53.333 -4 -93.333 -4 -120h24c40 0 60 8 60 24c2.66699 14 4 27.333 4 40c0 37.333 -14.667 56 -44 56c-14 2.66699 -27.333 4 -40 4z" />
    <glyph glyph-name="c" unicode="c" horiz-adv-x="648" 
d="M432 1316c104.667 0 166.002 -44 184.002 -132c5.33301 -30.667 8 -68 8 -112v-20c0 -77.333 -8 -116 -24 -116c0 -8 -12 -22.667 -36 -44c-109.333 0 -164 6.66699 -164 20c-6.66699 40 -26.667 60 -60 60c-0.666992 2.66699 -14 4 -40 4h-4
c-50.667 -126 -76 -258 -76 -396c0 -150 40 -252.667 120 -308c24 -8 40 -12 48 -12h8l-4 20v84c47.333 53.333 76.666 80 87.999 80c48 0 101.333 2.66699 160 8c5.33301 -8.66699 8 -16.667 8 -24c0 -217.333 -50.667 -352 -152 -404c-36 -16 -65.333 -24 -88 -24h-48
c-106 0 -199.333 62.667 -280 188c-53.333 125.333 -80 254.666 -80 387.999c0 170.667 26.667 337.334 80 500.001c54 104 154 182.667 300 236c33.333 2.66699 50.666 4 51.999 4zM96.002 548l-0.000976562 -8.00098c0 -170 57.333 -311.333 172 -424
c33.333 -21.333 64 -32 92 -32c106.667 0 188 57.333 244 172c5.33301 34 9.33301 87.333 12 160c-68 -2.66699 -108 -4 -120 -4v-40c-10 -96 -39.333 -144 -88 -144h-16c-105.333 0 -172 92 -200 276c-2.66699 17.333 -4 40 -4 68v24c0 178.667 38.667 329.334 116 452.001
c23.333 18.667 44.666 28 63.999 28h4c38.667 0 69.334 -30.667 92.001 -92h124c2.66699 26.667 4 46.667 4 60v12c0 116.667 -16 182 -48 196c-41.333 21.333 -78.666 32 -111.999 32c-158.667 0 -264 -172 -316 -516c-13.333 -70.667 -20 -144 -20 -220z" />
    <glyph glyph-name="d" unicode="d" horiz-adv-x="836" 
d="M468 1284c155.333 0 259.335 -62.668 312.002 -188.001c37.333 -87.333 56 -172.666 56 -255.999c-26.667 -206.667 -73.334 -374.667 -140.001 -504c-68.667 -142 -171.334 -244.667 -308.001 -308c-46 -18.667 -94 -28 -144 -28h-44c-70 0 -136.667 6.66699 -200 20
c2.66699 58.667 4 97.334 4 116.001c0 180.667 1.33301 496.667 4 948c65.333 75.333 124 120.666 176 135.999c88 42.667 182.667 64 284 64zM112.002 1144c5.33301 -162 7.99902 -275.333 7.99902 -340c0 -38.667 -2.66699 -140 -8 -304l8 -388l28 -4h84
c217.333 0 353.333 65.333 408 196c72.667 110 127.334 288.667 164.001 536c0 142 -44 259.333 -132 352c-48 37.333 -109.333 56 -184 56h-36c-124 0 -237.333 -34.667 -340 -104zM372.001 1068h12.001c73.333 0 130.666 -29.333 171.999 -88
c18.667 -45.333 28 -108 28 -188c0 -188.667 -37.333 -311.334 -112 -368.001c-106.667 -66.667 -186.667 -100 -240 -100c0 2.66699 -1.33301 4 -4 4c2.66699 110.667 4 193.334 4 248.001v436c58 33.333 104.667 52 140 56zM264.002 935.999l0.000976562 -572h4
c101.333 28 152 58.667 152 92c32 76.667 48 174 48 292c0 92 -20 150.667 -60 176c-26.667 10.667 -49.334 16 -68.001 16h-28z" />
    <glyph glyph-name="e" unicode="e" horiz-adv-x="712" 
d="M500 1300c12.667 0 53.999 -1.3291 123.999 -3.99609c0 -2.66699 1.33301 -4 4 -4c2.66699 -62.667 4 -97.334 4 -104.001c0 -136 -8 -204 -24 -204c0 -8.66699 -18.667 -27.334 -56 -56.001h-124v-104c0.666992 -5.33301 3.33398 -8 8.00098 -8h224l8 -4
c2.66699 -81.333 4 -141.333 4 -180v-4c0 -14.667 1.33301 -33.334 4 -56.001c-31.333 -44.667 -59.333 -78 -84 -100h-160c-2.66699 -80.667 -5.33398 -127.334 -8.00098 -140.001c44.667 2.66699 68.667 5.33398 72 8.00098
c38.667 -2.66699 105.334 -5.33398 200.001 -8.00098c10.667 -38.667 16 -73.334 16 -104.001c0 -117.333 -14.667 -176 -44 -176c-32 -34.667 -52 -52 -60 -52c-100 0 -301.333 1.33301 -604 4c0 2.66699 -1.33301 4 -4 4c10.667 150 16 280.667 16 392v252
c0 81.333 4 228 12 440c-2.66699 48.667 -4 79.334 -4 92.001l92 112c213.333 2.66699 341.333 4 384 4zM203.999 1260c-26.667 2.66699 -46.667 4.00098 -60 4.00098l4 -236c0 -49.333 -2.66699 -180 -8 -392c0 -21.333 1.33301 -100 4 -236l-12 -172
c0 -18.667 1.33301 -54.667 4 -108c2.66699 0 4 -1.33301 4 -4c96.667 2.66699 166 4 208 4h140c68 0 129.333 -2.66699 184 -8c5.33301 63.333 8 106 8 128c-5.33301 34 -8 54 -8 60c-44 2.66699 -77.333 4 -100 4h-68c-30 0 -66 -2.66699 -108 -8l-4 8
c8 161.333 12 256 12 284l12 8h196l28 4v16c0 41.333 -1.33301 97.333 -4 168h-216c-14 0 -22 4 -24 12v176c0 13.333 -1.33301 33.333 -4 60c0 6 46.667 11.333 140 16h12l48 -4l4 8c2.66699 85.333 4 134.666 4 147.999l-4 64c-57.333 2.66699 -100 4 -128 4h-68
c-40 0 -105.333 -2.66699 -196 -8z" />
    <glyph glyph-name="f" unicode="f" horiz-adv-x="588" 
d="M128 1280h92.001c86.667 0 206.667 -1.33301 360 -4l8 -12c0 -172 -18.667 -272 -56 -300l-16 -12h-60c-18.667 0 -48 1.33301 -88 4c2.66699 -44 4 -77.333 4 -100v-20h12c122.667 0 184 -6.66699 184 -20v-12c0 -33.333 1.33301 -64 4 -92
c-13.333 -136 -28 -204 -44 -204c0 -10 -6.66699 -24.667 -20 -44l-48 4h-12c-22.667 0 -56 -1.33301 -100 -4v-24c0 -76 4 -202.667 12 -380c-4.66699 -0.666992 -23.334 -20.667 -56.001 -60l-48 4h-24c-51.333 0 -127.333 1.33301 -228 4l-4 8v188
c10.667 170.667 18.667 350.667 24 540c-2.66699 142.667 -4 258.667 -4 348c0 6 -1.33301 20.667 -4 44c4 64 17.333 96 40 96zM152.001 1244c-13.333 -210.667 -19.999 -387.998 -19.999 -531.998v-80c0 -20.667 1.33301 -39.334 4 -56.001l-16 -400
c2.66699 -36.667 4 -59.334 4 -68.001c93.333 -8 158.666 -12 195.999 -12c0 -2.66699 1.33301 -4 4 -4c0 2.66699 1.33301 4 4 4c-8 104.667 -12 214 -12 328v116c0 15.333 45.333 27.333 136 36c14 0 36.667 -1.33301 68 -4c10.667 48.667 16 94 16 136v88l-48 4h-136
c-6 0 -10 6.66699 -12 20c0 62.667 -2.66699 122.667 -8 180c6.66699 37.333 21.334 56 44.001 56h4c39.333 0 92.666 1.33301 159.999 4c8 60.667 13.333 120.667 16 180l-8 4c-152 2.66699 -258.667 4 -320 4c-8 0 -33.333 -1.33301 -76 -4z" />
    <glyph glyph-name="g" unicode="g" 
d="M392 1256c130.667 0 228.001 -48.0029 292.001 -144.003c16 -22 24 -50 24 -84v-52c0 -80 -20 -137.333 -60 -172c-128 6 -192 14 -192 24v36c-7.33301 85.333 -34 128 -80 128c-2.66699 0 -6.66699 1.33301 -12 4c-41.333 -39.333 -73.333 -132.666 -96 -279.999
c-5.33301 -44 -9.33301 -89.333 -12 -136c14 -216 64.667 -324 152 -324c12 0 32 4 60 12c-2.66699 48 -6.66699 90.667 -12 128c-48.667 2.66699 -79.334 4 -92.001 4l-4 8c-5.33301 105.333 -8 165.333 -8 180l88 80c132.667 2.66699 223.334 4 272.001 4l4 -8v-236
c0 -133.333 -16 -214.666 -48 -243.999c-99.333 -122.667 -203.333 -184 -312 -184h-4c-154.667 0 -257.334 72 -308.001 216c-29.333 99.333 -44 214 -44 344c0 316.667 50.667 507.334 152 572.001c83.333 82.667 163.333 124 240 124zM100.001 591.997
l0.00195312 -7.99609c0 -250.667 36 -396 108 -436c44 -45.333 109.333 -68 196 -68c119.333 0 208.666 60 267.999 180c8 58 12 124.667 12 200v180c-100 -2.66699 -172 -4 -216 -4v-4c2.66699 -47.333 4 -86 4 -116h96c5.33301 -0.666992 8 -3.33398 8 -8.00098
c2.66699 -44.667 4 -79.334 4 -104.001c-22 -120 -78 -180 -168 -180h-12c-78 0 -132.667 77.333 -164 232c-5.33301 19.333 -9.33301 63.333 -12 132c0 132.667 28 262 84 388c41.333 61.333 84 92 128 92c62 0 103.333 -49.333 124 -148v-16
c22.667 0 58.667 -1.33301 108 -4c5.33301 29.333 8 62.666 8 99.999v20c0 97.333 -72 162.666 -216 195.999c-14 2.66699 -30 4 -48 4h-32c-126.667 0 -213.334 -109.333 -260.001 -328c-13.333 -71.333 -20 -171.333 -20 -300z" />
    <glyph glyph-name="h" unicode="h" horiz-adv-x="760" 
d="M100 1288c89.333 -2.66699 154.665 -3.99805 195.998 -3.99805c0.666992 -5.33301 3.33398 -8 8.00098 -8c5.33301 -102 8 -204.667 8 -308v-84h116c-2.66699 136 -4 236 -4 300v20c14 17.333 39.333 38.666 76 63.999h4c54.667 0 137.334 1.33301 248.001 4
c0 -2.66699 1.33301 -4 4 -4c0 -54.667 1.33301 -129.334 4 -224.001c-2.66699 -391.333 -4 -690 -4 -896c2.66699 -43.333 4 -67.333 4 -72c-6.66699 -0.666992 -28 -26 -64 -76c-36 2.66699 -62.667 4 -80 4h-196l-8 4l16 428v80h-108c8 -148 12 -232 12 -252
c-2.66699 -114 -4 -178 -4 -192l-76 -72c-16 0 -88 2.66699 -216 8c-24 102.667 -36 188 -36 256c0 60.667 4 192.667 12 396c-5.33301 288 -8 468 -8 540c47.333 42 79.333 71.333 96 88zM127.999 1256c5.33301 -196.667 8 -319.332 8 -367.999
c-10.667 -240.667 -16 -432.667 -16 -576v-76c0 -28 1.33301 -70.667 4 -128h172c0 42.667 1.33301 90.667 4 144c0 24 -6.66699 146.667 -20 368c2.66699 0 4 1.33301 4 4c49.333 -2.66699 85.333 -4 108 -4h136c5.33301 -0.666992 8 -3.33398 8 -8.00098
c-5.33301 -264.667 -8 -434 -8 -508h168c18.667 0 28 2.66699 28 8c0 252.667 1.33301 562 4 928c-2.66699 75.333 -4 142 -4 200c-53.333 -2.66699 -93.333 -4 -120 -4h-72l-8 -4l16 -380c-2.66699 0 -4 -1.33301 -4 -4c-49.333 2.66699 -85.333 4 -108 4h-140
c-5.33301 0 -8 2.66699 -8 8v92c0 108.667 -2.66699 208.667 -8 300h-64c-17.333 0 -44 1.33301 -80 4z" />
    <glyph glyph-name="i" unicode="i" horiz-adv-x="316" 
d="M112 1296l179.999 -0.000976562c6 0 10 -6.66699 12 -20c8 -148.667 12 -248.667 12 -300c0 -47.333 -5.33301 -214 -16 -500v-24c0 -81.333 1.33301 -208 4 -380l-76 -72c-16 0 -88 2.66699 -216 8c0 2.66699 -1.33301 4 -4 4c-5.33301 130.667 -8 217.334 -8 260.001
l16 572c0 42.667 -1.33301 148 -4 316l-4 24c66.667 74 101.334 111.333 104.001 112zM135.999 1260c0 -86.667 1.33301 -236 4 -448c-5.33301 -338.667 -13.333 -573.334 -24 -704.001h156c-2.66699 96.667 -4 166 -4 208v172l16 488c0 38.667 -4 133.334 -12 284.001h-136
z" />
    <glyph glyph-name="j" unicode="j" horiz-adv-x="680" 
d="M660 1240l8 -11.999c5.33301 -238.667 9.33301 -370.667 12 -396c-14 -368 -24.667 -561.333 -32 -580c-8.66699 -51.333 -42 -110 -100 -176c-67.333 -50.667 -138 -76 -212 -76c-132 0 -224 72 -276 216c-20.667 37.333 -40.667 88 -60 152l96 104h160
c5.33301 0 13.333 -57.333 24 -172c5.33301 -10.667 9.33301 -16 12 -16c45.333 13.333 68 36 68 68c2 21.333 4.66699 32 8 32l-4 20c5.33301 205.333 8 318.666 8 339.999c-5.33301 173.333 -8 296 -8 368l-4 28c0 5.33301 28 36 84 92c124.667 5.33301 196.667 8 216 8z
M472 1200c5.33301 -264 8.00195 -445.334 8.00195 -544.001c-10 -213.333 -26 -333.333 -48 -360c-8.66699 -48 -35.334 -72 -80.001 -72c0 -2.66699 -2.66699 -4 -8 -4c-72 0 -108 61.333 -108 184c0 6.66699 -1.33301 17.334 -4 32.001h-104c18 -106 38 -183.333 60 -232
c28.667 -56 62 -90.667 100 -104c52.667 -18.667 92.667 -28 120 -28h32c89.333 0 150.666 76 183.999 228c13.333 289.333 20 468 20 536c0 60 -2.66699 182.667 -8 368c-2.66699 0 -4 1.33301 -4 4z" />
    <glyph glyph-name="k" unicode="k" horiz-adv-x="688" 
d="M300 1292c0 -2.66699 1.33398 -4 4.00098 -4c-10.667 -131.333 -16 -251.333 -16 -360v-32h4c44.667 113.333 106 238.666 184 375.999h4c53.333 -51.333 122.666 -107.333 207.999 -168v-4c-68.667 -114 -147.334 -259.333 -236.001 -436
c14.667 -13.333 37.334 -80 68.001 -200c24 -64 73.333 -184 148 -360c-20 -35.333 -33.333 -54 -40 -56h-208c-44.667 49.333 -91.334 133.333 -140.001 252h-4v-228c0 -14 -12 -38 -36 -72h-68c-39.333 0 -92.666 1.33301 -159.999 4c0 2.66699 -1.33301 4 -4 4
c-2.66699 84.667 -4 147.334 -4 188.001v204c0 34 -1.33301 71.333 -4 112c16 168 24 277.333 24 328v384c39.333 40 79.333 60 120 60c6.66699 0 58.667 2.66699 156 8zM256.001 1256c-31.333 0 -73.998 -2.66406 -127.998 -7.99707v-128
c0 -8.66699 1.33301 -15.334 4 -20.001l-4 -24v-16l-20 -620v-352c60.667 2.66699 106 4 136 4v244c0 146.667 5.33301 220 16 220h20c5.33301 -2 41.333 -91.333 108 -268l80 -152h152c-78 168 -138 330.667 -180 488c-14 20.667 -22 34 -24 40
c96 192.667 173.333 336.667 232 432c-64.667 43.333 -119.334 84.666 -164.001 123.999c-2.66699 0 -4 -1.33301 -4 -4c-61.333 -114.667 -117.333 -233.334 -168 -356.001c-8 -7.33301 -17.333 -23.333 -28 -48c-8.66699 0 -19.334 4 -32.001 12
c2.66699 26.667 4 46.667 4 60v92c0 62 4 156.667 12 284c-5.33301 -2.66699 -9.33301 -4 -12 -4z" />
    <glyph glyph-name="l" unicode="l" horiz-adv-x="720" 
d="M124 1296l251.999 -0.000976562l8 -4c2.66699 -84.667 4 -147.334 4 -188.001v-20l-16 -708c172 5.33301 281.333 8 328 8l4 -8v-48c0 -35.333 5.33301 -119.333 16 -252c0 -1.33301 -25.333 -26.666 -76 -75.999c-258.667 2.66699 -460 4 -604 4h-32
c-5.33301 0 -8 2.66699 -8 8c0 186.667 12 497.334 36 932.001v208c0 18.667 -1.33301 48 -4 88c52.667 37.333 83.334 56 92.001 56zM143.999 1260c-8 -524.667 -18.667 -906.001 -32 -1144c134 5.33301 231.333 8 292 8l268 -12c5.33301 -2.66699 9.33301 -4 12 -4v4
c-8 97.333 -12 165.333 -12 204v36c-172 -5.33301 -281.333 -8 -328 -8l-4 8c0 68 5.33301 317.333 16 748c0 26.667 -1.33301 81.334 -4 164.001h-168z" />
    <glyph glyph-name="m" unicode="m" horiz-adv-x="792" 
d="M100 1292l212.005 0.000976562c6 -1.33301 40.667 -85.333 104 -252h4c55.333 136.667 88.666 210 99.999 220c57.333 18.667 90.666 28 99.999 28h164c5.33301 -0.666992 8 -3.33398 8 -8.00098v-1200c-25.333 -30 -48 -55.333 -68 -76l-40 4h-72
c-61.333 0 -92 4 -92 12c-5.33301 72 -9.33301 157.333 -12 256c0 17.333 1.33301 40 4 68c-2.66699 66 -4 131.333 -4 196v128c-46.667 -56 -89.334 -84 -128.001 -84c-6 0 -22 17.333 -48 52v-552c-12.667 -16.667 -47.334 -44.667 -104.001 -84
c-14.667 2.66699 -25.334 4 -32.001 4c-32 0 -93.333 1.33301 -184 4c0 2.66699 -1.33301 4 -4 4l16 756l-24 388c-0 56 9.33301 84 28 84zM132.005 1256c5.33301 -166 8 -308.667 8 -428c-10.667 -131.333 -18.667 -368.666 -24 -711.999l180 -8l4 8v708
c0 20.667 6.66699 34 20 40h8c53.333 -77.333 96 -145.333 128 -204c31.333 32.667 71.333 100.667 120 204h24c7.33301 0 16.666 -34.667 27.999 -104c-2.66699 -22.667 -4 -40 -4 -52c0 -22.667 -2.66699 -188 -8 -496v-96c42.667 0 90.667 -2.66699 144 -8v1148h-124
c-3.33301 0 -20.666 -38.667 -51.999 -116l-116 -240h-4c-39.333 29.333 -86 126.666 -140 291.999c-4 0 -13.333 22.667 -28 68h-144z" />
    <glyph glyph-name="n" unicode="n" horiz-adv-x="820" 
d="M800 1296c8 -14.667 12 -38.6689 12 -72.002c0 -19.333 -2.66699 -56.666 -8 -111.999c5.33301 -84 10.666 -430.667 15.999 -1040l-68 -72h-160c-58.667 94.667 -121.334 220 -188.001 376c-19.333 49.333 -44.666 100 -75.999 152v-8
c0 -89.333 -4 -234.666 -12 -435.999l-76 -84c-26.667 2.66699 -46.667 4 -60 4h-152c-5.33301 0 -8 2.66699 -8 8v252c-8 531.333 -14.667 850 -20 956c54 42.667 86 66.667 96 72c31.333 0 90 -1.33301 176 -4c83.333 -165.333 151.333 -321.333 204 -468
c8 -17.333 12 -29.333 12 -36h8c0 21.333 1.33301 49.333 4 84c-5.33301 178.667 -8 292 -8 340c52.667 53.333 83.334 80 92.001 80c18.667 0 90.667 2.66699 216 8zM600 1256l-0.00195312 -3.99902c5.33301 -164.667 9.33301 -415.334 12 -752.001l-12 -8h-16
c-18.667 26 -74.667 156.667 -168 392c-31.333 84.667 -84.666 208.667 -159.999 372h-8c-28 0 -70.667 1.33301 -128 4c10.667 -244.667 16 -451.334 16 -620.001c-5.33301 -80.667 -9.33301 -178 -12 -292c2.66699 -152 5.33398 -228 8.00098 -228
c28 0 78.667 -1.33301 152 -4c11.333 393.333 20.666 614.666 27.999 663.999c12 0 20 1.33301 24 4c104 -211.333 182.667 -390 236 -536c40 -85.333 76 -128 108 -128c56.667 -5.33301 92.667 -8 108 -8v4c-5.33301 498.667 -10.666 833.334 -15.999 1004
c5.33301 64.667 8 102 8 112c-2.66699 14.667 -4 25.334 -4 32.001c-69.333 -5.33301 -128 -8 -176 -8z" />
    <glyph glyph-name="o" unicode="o" horiz-adv-x="800" 
d="M468 1300l3.99902 -0.000976562c146 0 248.667 -130.667 308 -392c13.333 -67.333 20 -139.333 20 -216v-64c0 -227.333 -49.333 -403.333 -148 -528c-59.333 -66.667 -155.333 -100 -288 -100c-117.333 0 -214.666 68 -291.999 204c-48 60.667 -72 136.667 -72 228
c0 258.667 40 469.334 120 632.001c48 74 116 139.333 204 196c38 26.667 86 40 144 40zM107.999 603.999l0.000976562 -39.999c0 -193.333 58.667 -332 176 -416c55.333 -26.667 107.333 -40 156 -40h24c110.667 0 188 41.333 232 124c48 118.667 72 256 72 412v32
c-4.66699 309.333 -82 502.666 -232 579.999c-24.667 8 -47.334 12 -68.001 12c-144 0 -244 -112 -300 -336c-40 -128.667 -60 -238 -60 -328zM436 1104c90.667 0 146.666 -101.333 167.999 -304c8 -102 12 -155.333 12 -160c0 -180 -28 -292 -84 -336
c-29.333 -13.333 -54.666 -20 -75.999 -20h-12c-67.333 0 -126 40 -176 120c-21.333 70.667 -32 150.667 -32 240c0 218.667 61.333 370.667 184 456c6 0 11.333 1.33301 16 4zM271.999 676l-0.000976562 -80c0 -123.333 24 -202 72 -236c34 -26.667 60.667 -40 80 -40
c56 22.667 84 70.667 84 144v152c0 112 -20 217.333 -60 316c-19.333 26.667 -48.666 40 -87.999 40h-12c-50.667 -65.333 -76 -164 -76 -296z" />
    <glyph glyph-name="p" unicode="p" horiz-adv-x="784" 
d="M448 1324c171.333 0 280.667 -84 328 -252c5.33301 -21.333 8 -44 8 -68v-12c0 -159.333 -74.667 -280.666 -224 -363.999c-141.333 -48 -228 -72 -260 -72c5.33301 -109.333 8 -201.333 8 -276c0 -21.333 -2.66699 -88 -8 -200
c-36 -30.667 -69.333 -57.334 -100 -80.001c-133.333 6 -200 12.667 -200 20c0 282.667 6.66699 672 20 1168c66 54 135.333 87.333 208 100c74 24 147.333 36 220 36zM136.001 1224c-5.33301 -156.667 -7.99902 -300.668 -7.99902 -432.001c0 -90.667 1.33301 -316 4 -676
h136c5.33301 86 8 143.333 8 172c0 22 -2.66699 119.333 -8 292c185.333 40 300 78.667 344 116c93.333 84 140 185.333 140 304c0 146.667 -77.333 241.334 -232 284.001c-40 5.33301 -65.333 8 -76 8c-86.667 0 -189.334 -22.667 -308.001 -68zM416.002 1100h11.999
c77.333 0 116 -56 116 -168v-12c0 -80.667 -36 -136.667 -108 -168l-20 -4c-70 0 -115.333 49.333 -136 148l-4 28c0 82 40 139.333 120 172c4.66699 2.66699 11.334 4 20.001 4zM328.001 999.999c-10.667 -26.667 -16 -49.333 -16 -68v-24c0 -48.667 20 -86 60 -112h8
c24 19.333 36 54 36 104c0 66.667 -22.667 100 -68 100h-20z" />
    <glyph glyph-name="q" unicode="q" horiz-adv-x="872" 
d="M484 1306l19.999 0.000976562c88.667 0 175.334 -89.333 260.001 -268c53.333 -172 80 -334.667 80 -488v-8c0 -96.667 -20 -187.334 -60 -272.001c3.33301 0 32.666 -41.333 87.999 -124c-5.33301 -57.333 -8 -102.666 -8 -135.999
c-92.667 -66.667 -143.334 -100 -152.001 -100l-96 96c-35.333 -5.33301 -70 -8 -104 -8h-60c-194 0 -324.667 96 -392 288c-40 129.333 -60 245.333 -60 348c0 204.667 40 366 120 484c80.667 81.333 191.334 142.666 332.001 183.999c10.667 2.66699 21.334 4 32.001 4z
M131.999 630.001c0 -196.667 25.334 -322 76.001 -376c54 -90.667 127.333 -136 220 -136h12c52.667 0 120.667 10.667 204 32l72 -92c64 52 101.333 81.333 112 88v8c-36.667 50 -63.334 88.667 -80.001 116c42.667 83.333 64 176.666 64 279.999
c0 186 -36 367.333 -108 544c-74 120 -143.333 180 -208 180c-92 0 -181.333 -57.333 -268 -172c-64 -89.333 -96 -246.666 -96 -471.999zM452 1110c122 0 200.668 -173.334 236.001 -520.001v-12c0 -73.333 -21.333 -126.666 -64 -159.999h-4c-2 0 -31.333 40 -88 120
c-61.333 -46 -92 -72.667 -92 -80l124 -200v-12c-30.667 -16 -53.334 -24 -68.001 -24h-28c-82 0 -151.333 61.333 -208 184c-16 58 -24 112.667 -24 164v76c0 250.667 60 402.667 180 456zM268.001 618v-23.999c0 -186 58.667 -298 176 -336c4.66699 -2.66699 10 -4 16 -4
l-92 128v4c18 66.667 35.333 100 52 100c0 3.33301 38.667 36.666 116 99.999l28 -32c5.33301 46 8 80.667 8 104c0 106.667 -36 216 -108 328c-35.333 26.667 -66 40 -92 40c-69.333 -50 -104 -186 -104 -408z" />
    <glyph glyph-name="r" unicode="r" horiz-adv-x="896" 
d="M472 1348c138.667 0 233.335 -77.334 284.002 -232.001c10.667 -40 16 -82.667 16 -128c0 -89.333 -57.333 -196 -172 -320c69.333 -87.333 134.666 -200.666 195.999 -339.999l100 -192l-60 -84l-48 4h-32c-42 0 -111.333 1.33301 -208 4
c-107.333 171.333 -190 311.333 -248 420c-8 6 -12 12.667 -12 20h-4v-124c0 -64 1.33301 -164 4 -300l-92 -76l-28 4h-16c-31.333 0 -80.666 1.33301 -147.999 4c0 2.66699 -1.33301 4 -4 4c5.33301 274 10.666 478 15.999 612c-8 82 -12 202 -12 360v124
c92 104.667 162.667 162 212 172c87.333 45.333 172.666 68 255.999 68zM108.001 1168c2.66699 -156.667 8.00098 -279.333 16.001 -368c-8 -201.333 -14.667 -430.666 -20 -687.999h4c22 0 71.333 -1.33301 148 -4c-2.66699 67.333 -4 120.666 -4 159.999v68
c0 86.667 1.33301 202.667 4 348c2.66699 0 4 1.33301 4 4c25.333 0 49.333 -25.333 72 -76c112 -162.667 202.667 -312 272 -448h240v4c-52 91.333 -106.667 199.333 -164 324c-22 38 -62 98 -120 180c120 128.667 180 234 180 316c0 157.333 -60 261.333 -180 312
c-24 8 -56 13.333 -96 16c-96.667 0 -207.334 -40 -332.001 -120zM440.002 1136c44 0 74.667 -18.666 92 -55.999c5.33301 -10.667 8 -25.334 8 -44.001v-24c-12.667 -106.667 -54 -160 -124 -160h-4c-71.333 0 -119.333 26.667 -144 80c-2.66699 14.667 -4 26.667 -4 36
c0 76.667 52 132.667 156 168h20zM296.002 960.001c0 -42 38.667 -67.333 116 -76c21.333 28.667 32 54 32 76v24c0 40 -22.667 60 -68 60h-32c-32 -7.33301 -48 -35.333 -48 -84z" />
    <glyph glyph-name="s" unicode="s" 
d="M456 1324l12.0029 0.000976562c92 0 156 -52 192 -156c10.667 -46.667 16 -81.334 16 -104.001c-8 -101.333 -18.667 -152 -32 -152l-64 -60c-90.667 0 -136 6.66699 -136 20c0 75.333 -28 123.333 -84 144h-16c-10.667 -1.33301 -16 -12 -16 -32v-4
c0 -50 89.333 -143.333 268 -280c80 -75.333 120 -174 120 -296c0 -88 -33.333 -174.667 -100 -260c-80.667 -96 -167.334 -144 -260.001 -144h-12c-140.667 0 -240.667 92 -300 276c-10.667 68.667 -17.334 126 -20.001 172c57.333 37.333 98.666 56 123.999 56l156 8
c22 -122.667 51.333 -184 88 -184c24 27.333 36 58 36 92c0 62 -84 135.333 -252 220c-117.333 91.333 -176 191.333 -176 300c0 114.667 56 214.667 168 300c124 56 220 84 288 84zM128.003 980.001l-0.00195312 -32c0 -86 62.667 -172.667 188 -260
c162.667 -63.333 244 -139.333 244 -228c0 -79.333 -41.333 -134 -124 -164c-6.66699 0 -17.334 -1.33301 -32.001 -4c-59.333 0 -100.666 57.333 -123.999 172v12h-24c-22.667 0 -56 -1.33301 -100 -4v-20c0 -138.667 16 -220 48 -244c52 -64 109.333 -96 172 -96h32
c132.667 0 215.334 54.667 248.001 164c16 48.667 24 86 24 112v36c0 130 -64 236.667 -192 320c-128 104.667 -192 180.667 -192 228v8c0 63.333 36 107.333 108 132l28 4c50.667 0 93.334 -53.333 128.001 -160h72v4c8 60.667 12 96.667 12 108
c0 86 -30.667 152.667 -92 200c-28 16 -60 24 -96 24c-93.333 0 -180 -42.667 -260 -128c-45.333 -70.667 -68 -132 -68 -184z" />
    <glyph glyph-name="t" unicode="t" horiz-adv-x="776" 
d="M764 1272c0 -2.66699 1.33203 -4 3.99902 -4c2.66699 -96.667 5.33398 -164.667 8.00098 -204c-21.333 -43.333 -40 -71.333 -56 -84h-112c-13.333 0 -33.333 1.33301 -60 4c2.66699 -44 4 -77.333 4 -100v-76c-8 -432 -12 -682.667 -12 -752
c-3.33301 0 -19.333 -18.667 -48 -56c-96.667 2.66699 -166 4 -208 4h-48c-5.33301 0 -8 2.66699 -8 8v228c0 95.333 1.33301 183.333 4 264c-2.66699 40.667 -4 98 -4 172c0 66 4 166 12 300h-212c-6 0 -15.333 74.667 -28 224c39.333 31.333 70 54 92 68h184
c117.333 0 280 1.33301 488 4zM119.999 1236c0 -8 2.66699 -61.333 8 -160h68c52.667 0 102 2.66699 148 8c0 -2.66699 1.33301 -4 4 -4c-10.667 -174 -16 -314 -16 -420c8 -313.333 12 -500 12 -560h4l160 -8c0 90 4 332.667 12 728c0 44.667 -2.66699 132.667 -8 264l8 4
h192l28 4v44c0 22.667 -1.33301 56 -4 100h-616z" />
    <glyph glyph-name="u" unicode="u" horiz-adv-x="668" 
d="M104 1260c25.333 0 77.332 -1.33105 155.999 -3.99805c2.66699 -2.66699 5.33398 -18.667 8.00098 -48c-18.667 -114 -28 -214 -28 -300c8 -162 12 -326 12 -492v-52c0 -30.667 25.333 -54.667 76 -72c15.333 0 26 97.333 32 292c-5.33301 164 -8 298.667 -8 404v164
c2.66699 6 29.334 28.667 80.001 68h228c5.33301 -0.666992 8 -3.33398 8 -8.00098c-8 -188 -12 -308 -12 -360c8 -168.667 12 -290 12 -364c0 -244.667 -53.333 -391.334 -160 -440.001c-50.667 -32 -109.334 -48 -176.001 -48c-155.333 0 -259.333 76 -312 228
c-8 35.333 -14.667 74 -20 116c5.33301 100.667 8 207.334 8 320.001c-5.33301 216 -8 364 -8 444v40c0 27.333 34.667 64.666 104 111.999zM127.999 1228c-5.33301 -212 -7.99902 -368.001 -7.99902 -468.001c0 -354.667 10.667 -532 32 -532
c57.333 -101.333 134.666 -152 231.999 -152c98 0 158 20 180 60c48 78.667 72 198.667 72 360c0 38.667 -4 158.667 -12 360c0 93.333 4 204 12 332h-152l-20 -4v-340c0 -344 -12 -516 -36 -516c-20 -45.333 -48 -68 -84 -68h-4c-80 12.667 -120 48.667 -120 108
c0 170.667 -4 349.334 -12 536.001c0 96 9.33301 201.333 28 316l-8 4c-22.667 0 -56 1.33301 -100 4z" />
    <glyph glyph-name="v" unicode="v" horiz-adv-x="976" 
d="M264 1284c39.333 -68.667 88.666 -260.668 147.999 -576.001c2.66699 0 4 -4 4 -12h4c56 147.333 100 290 132 428c0 51.333 29.333 87.333 88 108c28.667 16 71.334 24 128.001 24c26.667 0 96 -1.33301 208 -4v-4c-64 -149.333 -117.333 -308 -160 -476
c-44 -203.333 -121.333 -436.666 -232 -699.999l-64 -68h-128l-48 -4c-36 58 -108 308.667 -216 752c-49.333 192 -92 332 -128 420c38 63.333 63.333 99.333 76 108c10 0 72.667 1.33301 188 4zM116 1244c90.667 -325.333 189.336 -704 296.003 -1136
c31.333 0 80.666 -1.33301 147.999 -4c106.667 246 188 496.667 244 752c37.333 138.667 80 260 128 364h-4c-83.333 2.66699 -136.666 4 -159.999 4c-56 0 -84 -12 -84 -36c-50.667 -162 -105.334 -366 -164.001 -612c-31.333 -78 -51.333 -122 -60 -132
c-60.667 177.333 -115.334 397.333 -164.001 660c-30.667 98.667 -49.334 148 -56.001 148c-82.667 -2 -124 -4.66699 -124 -8z" />
    <glyph glyph-name="w" unicode="w" horiz-adv-x="1128" 
d="M908 1316c146.667 0 220 -5.33105 220 -15.998v-4c-34.667 -256.667 -62.667 -483.334 -84 -680.001c-24 -156.667 -58.667 -338 -104 -544c-33.333 -47.333 -52 -71.333 -56 -72h-216c-17.333 20 -36 61.333 -56 124h-8c-37.333 -82.667 -58.666 -124 -63.999 -124
c-104.667 2.66699 -179.334 4 -224.001 4c-48 115.333 -94.667 275.333 -140 480c-26.667 92.667 -58.667 243.334 -96 452.001l-80 208c34 80 75.333 120 124 120c0 7.33301 50.667 12.666 152 15.999c8 -17.333 38.667 -128 92 -332c29.333 -113.333 69.333 -244 120 -392
h4c46.667 56 85.334 84 116.001 84c14 5.33301 24.667 8 32 8c40 -48.667 60 -79.334 60 -92.001h8c29.333 114.667 62.666 348 99.999 700c0 18.667 18.667 32 56 40c18 13.333 32.667 20 44 20zM924 1280l-0.000976562 -4c-32 -286 -66.667 -502 -104 -648l-56 -208h-8
l-116 172h-4c-31.333 -58 -72.666 -116.667 -123.999 -176h-8c-80 212 -162.667 488 -248 828h-20c-47.333 0 -91.333 -5.33301 -132 -16c96 -304.667 166.667 -591.334 212 -860.001c0 -46 25.333 -138 76 -276h156c6.66699 1.33301 36 57.333 88 168h8
c46 -74 74 -127.333 84 -160l188 8c56 252 96 498.667 120 740c29.333 204.667 48 347.334 56 428.001h-4c-14.667 2.66699 -26.667 4 -36 4h-128z" />
    <glyph glyph-name="x" unicode="x" horiz-adv-x="868" 
d="M648 1288l216 -12.0039c2.66699 -5.33301 4 -9.33301 4 -12c-80.667 -227.333 -164.667 -416.666 -252 -567.999v-4c94 -223.333 171.333 -423.333 232 -600c5.33301 -17.333 8 -29.333 8 -36l-56 -56c-18.667 0 -92 2.66699 -220 8c-32 76 -74.667 188 -128 336
c-4.66699 -3.33301 -20.667 -44.666 -48 -123.999c-40 -91.333 -66.667 -148.666 -80 -171.999l-44 -44h-272c-5.33301 0 -8 2.66699 -8 8c96 276.667 192 503.334 288 680.001c-128 304.667 -197.333 474 -208 508l72 76h176c20.667 -23.333 50 -99.333 88 -228
c12.667 -48 22 -72 28 -72c18.667 29.333 48 112 88 248c62 38.667 100.667 60 116 64zM664 1256c-72 -190.667 -134.666 -326.668 -187.999 -408.001c-46.667 60.667 -88 160.667 -124 300c-22.667 58 -37.334 90 -44.001 96h-112
c59.333 -179.333 132.666 -350 219.999 -512v-4c-125.333 -254.667 -221.333 -464 -288 -628h8c24.667 0 83.334 -1.33301 176.001 -4l132 316c28 52.667 45.333 80.667 52 84c50 -128.667 102 -244.667 156 -348c7.33301 -32 19.333 -48 36 -48
c25.333 -2.66699 53.333 -4 84 -4h12l28 -4c-44.667 138.667 -122 338.667 -232 600v4c88 156.667 162.667 319.334 224 488.001c10.667 32 16 52 16 60z" />
    <glyph glyph-name="y" unicode="y" horiz-adv-x="908" 
d="M268 1264c8 -5.33301 37.332 -91.998 87.999 -259.998c16.667 -37.333 27.334 -56 32.001 -56c29.333 54 76 148.667 140 284l100 12l276 -12l4 -8c-94 -166 -204.667 -342 -332 -528c-16 -28.667 -25.333 -43.334 -28 -44.001c2.66699 -62.667 4 -109.334 4 -140.001
v-56c-8 -148.667 -12 -278 -12 -388v-8c0 -5.33301 -6.66699 -25.333 -20 -60l-48 4c-38.667 0 -98.667 1.33301 -180 4l-4 8c0 45.333 2.66699 238.666 8 579.999c-102.667 162.667 -174.667 301.334 -216 416.001c-40 100 -66.667 170.667 -80 212
c46 24 103.333 36 172 36c48.667 2.66699 80.667 4 96 4zM123.999 1224c62 -196.667 134 -370.001 216 -520.001c4 -0.666992 20 -28.667 48 -84c0 -77.333 -2.66699 -245.333 -8 -504c-2.66699 -4.66699 -4 -10 -4 -16c58.667 -8 102.667 -12 132 -12v32
c0 92.667 4 204.667 12 336c0 34.667 -1.33301 102.667 -4 204l264 408l76 132l-220 12c-86 -187.333 -158 -316.666 -216 -387.999h-8c-60 100.667 -108 218 -144 352l-20 56z" />
    <glyph glyph-name="z" unicode="z" horiz-adv-x="868" 
d="M448 1300h28.0029c80 0 189.333 -1.33301 328 -4c2.66699 -5.33301 4 -9.33301 4 -12c0 -32 -1.33301 -93.333 -4 -184c-62.667 -91.333 -137.334 -218 -224.001 -380c-38.667 -54.667 -101.334 -184 -188.001 -388h4l220 16h232c8 0 14.667 -29.333 20 -88
c0 -136 -10.667 -204 -32 -204c-7.33301 -22 -19.333 -39.333 -36 -52c-36.667 0 -62 1.33301 -76 4l-704 -8c-13.333 50.667 -20 96 -20 136v140c0 7.33301 61.333 110 184 308c31.333 67.333 111.333 211.333 240 432h-360c-8 0 -14.667 58.667 -20 176
c48.667 53.333 78 80 88 80c127.333 18.667 232.666 28 315.999 28zM148.003 1240l8 -107.999h200c69.333 0 153.333 -2.66699 252 -8l4 -8c-96.667 -174 -182 -318 -256 -432c-66 -132.667 -148.667 -275.334 -248 -428.001l8 -144h4c139.333 0 375.333 1.33301 708 4
c5.33301 70 8 118 8 144c-5.33301 35.333 -8 54 -8 56h-192l-292 -20c0 2.66699 -1.33301 4 -4 4c106 248 204.667 442.667 296 584c30.667 65.333 76 141.333 136 228v12c0 24 1.33301 70.667 4 140c-172 2.66699 -281.333 4 -328 4c-81.333 0 -181.333 -9.33301 -300 -28z
" />
    <glyph glyph-name="nonmarkingreturn" horiz-adv-x="508" 
 />
  </font>
</defs>
</svg>
